<svg width="574" height="154" viewBox="0 0 1149 309" fill="none" xmlns="http://www.w3.org/2000/svg">
<path d="M56 232.504H142.5H229" stroke="black" stroke-width="4"/>
<line x1="117.523" y1="232.742" x2="139.523" y2="108.742" stroke="black" stroke-width="3"/>
<line y1="-1.5" x2="125.936" y2="-1.5" transform="matrix(0.174691 0.984623 0.984623 -0.174691 154 109.004)" stroke="black" stroke-width="3"/>
<ellipse cx="198.5" cy="212.004" rx="13.5" ry="14" fill="#101010"/>
<circle cx="221.5" cy="219.504" r="7.5" fill="#101010"/>
<line x1="187.5" y1="233.004" x2="187.5" y2="212.004" stroke="black" stroke-width="3"/>
<line x1="217.5" y1="231.004" x2="217.5" y2="220.004" stroke="black" stroke-width="3"/>
<line x1="202.159" y1="202.52" x2="218.742" y2="189.635" stroke="black" stroke-width="6"/>
<line x1="210.5" y1="233.004" x2="210.5" y2="212.004" stroke="black" stroke-width="3"/>
<line x1="226.5" y1="231.004" x2="226.5" y2="220.004" stroke="black" stroke-width="3"/>
<path d="M207.208 111.004L227.732 117.389C231.406 118.532 233.07 122.787 231.146 126.118L221.405 142.987C220.003 145.415 217.105 146.548 214.427 145.715L208.456 143.858C205.711 143.004 203.958 140.324 204.275 137.467L207.208 111.004Z" fill="#1E1B1B"/>
<line x1="210.206" y1="142.181" x2="202.206" y2="157.181" stroke="black" stroke-width="5"/>
<path fill-rule="evenodd" clip-rule="evenodd" d="M85.9124 18.6977C77.5887 16.3519 68.7413 20.1253 61.3008 26.9616C53.7834 33.8684 47.1725 44.3252 43.0298 56.7309C38.7298 69.6078 39.5676 83.5368 42.0793 94.1754C43.3377 99.5058 45.046 104.139 46.8407 107.511C47.7317 109.185 48.7023 110.659 49.7298 111.76C50.2826 112.352 51.058 113.061 52.026 113.521L51.8689 114.004H57.0083L57.8118 113.395L97.8118 83.085L99.2777 81.9743L98.9528 80.164L96.612 67.1207L96.7612 66.6749L96.6272 65.922L88.6749 21.2493L88.3607 19.4841L86.6572 18.9248C86.5327 18.8839 86.4079 18.8444 86.2828 18.8063L85.825 20.3086L85.4654 20.2839L85.9124 18.6977ZM92.7223 79.4137L56.1584 107.12L54.7876 106.247L53.7393 107.225C53.2723 106.636 52.7261 105.798 52.1371 104.692C50.6378 101.875 49.088 97.7493 47.9188 92.7968C45.575 82.8694 44.8788 70.1368 48.7209 58.6313C52.5989 47.0181 58.7139 37.4864 65.3602 31.3798C71.6065 25.6408 77.8794 23.2785 83.1065 24.2034L90.586 66.2206L90.4354 66.6706L90.5708 67.4256L92.7223 79.4137Z" fill="#111010"/>
<path d="M49.0176 54.7131L94.0202 65.4722L90.3214 75.8317L49.0176 54.7131Z" fill="#111010"/>
<path d="M42.0176 64.7131L92.6186 77.4711L88.9197 87.8306L42.0176 64.7131Z" fill="#111010"/>
<path fill-rule="evenodd" clip-rule="evenodd" d="M228.545 124.304L79.2176 76.9873L82.2743 69.5639L230.962 116.677C233.068 117.345 234.234 119.593 233.567 121.699C232.899 123.805 230.651 124.971 228.545 124.304Z" fill="#111010"/>
<path d="M47.5 50.0042L42 68.0042L42 112.004L42 262.004" stroke="black" stroke-width="2"/>
<rect x="127" y="104.004" width="36" height="5" fill="#272727"/>
<rect x="138" y="94.0042" width="16" height="11" fill="#110F0F"/>
<line x1="128" y1="163.504" x2="163" y2="163.504" stroke="black" stroke-width="3"/>
<line x1="42" y1="116.004" x2="42" y2="130.004" stroke="black" stroke-width="4"/>
<line x1="153.423" y1="126.271" x2="129.423" y2="164.271" stroke="black"/>
<line y1="-0.5" x2="44.9444" y2="-0.5" transform="matrix(0.533993 0.845489 0.845489 -0.533993 138 126.004)" stroke="black"/>
<line x1="143.5" y1="164.004" x2="143.5" y2="233.004" stroke="black"/>
<line x1="150.5" y1="164.004" x2="150.5" y2="233.004" stroke="black"/>
<line x1="143" y1="170.504" x2="150" y2="170.504" stroke="black"/>
<line x1="143" y1="177.504" x2="150" y2="177.504" stroke="black"/>
<line x1="143" y1="177.504" x2="150" y2="177.504" stroke="black"/>
<line x1="143" y1="183.504" x2="150" y2="183.504" stroke="black"/>
<line x1="143" y1="191.504" x2="150" y2="191.504" stroke="black"/>
<line x1="143" y1="197.504" x2="150" y2="197.504" stroke="black"/>
<line x1="143" y1="204.504" x2="150" y2="204.504" stroke="black"/>
<line x1="143" y1="211.504" x2="150" y2="211.504" stroke="black"/>
<line x1="143" y1="217.504" x2="150" y2="217.504" stroke="black"/>
<line x1="143" y1="225.504" x2="150" y2="225.504" stroke="black"/>
<path d="M205 154.004C205 154.004 200 156.004 205 208.004" stroke="black" stroke-width="2"/>
<circle cx="198.5" cy="211.504" r="8" stroke="#BE6363"/>
<circle cx="221.5" cy="218.504" r="4" stroke="#EB8D00"/>
<line x1="221.69" y1="214.397" x2="202.69" y2="199.397" stroke="black"/>
<path d="M309.008 109.872C324.304 109.872 331.952 114.896 331.952 124.944C331.952 129.04 330.64 132.464 328.016 135.216C325.392 137.904 321.584 139.536 316.592 140.112C323.056 141.328 327.76 143.216 330.704 145.776C333.648 148.336 335.12 151.952 335.12 156.624C335.12 162.512 332.624 166.896 327.632 169.776C322.64 172.592 316.144 174 308.144 174H282.128V171.696L289.136 170.736V113.04L280.976 112.08V109.872H309.008ZM304.592 142.032L302.096 142.128V171.312C303.312 171.632 304.72 171.792 306.32 171.792C310.736 171.792 314.448 170.576 317.456 168.144C320.464 165.648 321.968 161.552 321.968 155.856C321.968 148.624 318.832 144.304 312.56 142.896C310 142.32 307.344 142.032 304.592 142.032ZM302.096 112.464V139.344H304.4C308.88 139.344 312.368 138.128 314.864 135.696C317.36 133.264 318.608 129.744 318.608 125.136C318.608 120.464 317.648 117.2 315.728 115.344C313.808 113.424 310.736 112.464 306.512 112.464H302.096ZM859.771 141.744C859.771 151.344 856.763 159.312 850.747 165.648C844.795 171.92 836.731 175.056 826.555 175.056C816.443 175.056 808.379 171.92 802.363 165.648C796.411 159.312 793.435 151.344 793.435 141.744C793.435 132.144 796.411 124.208 802.363 117.936C808.379 111.6 816.443 108.432 826.555 108.432C836.731 108.432 844.795 111.6 850.747 117.936C856.763 124.208 859.771 132.144 859.771 141.744ZM826.747 172.08C839.035 172.08 845.179 161.968 845.179 141.744C845.179 132.016 843.771 124.528 840.955 119.28C838.203 114.032 833.435 111.408 826.651 111.408C819.867 111.408 815.035 114.032 812.155 119.28C809.339 124.528 807.931 132.016 807.931 141.744C807.931 161.968 814.203 172.08 826.747 172.08Z" fill="#DE0E0E"/>
<path d="M363.895 140.496H367.159C377.399 140.496 382.519 135.6 382.519 125.808C382.519 121.072 381.527 117.648 379.543 115.536C377.559 113.36 374.423 112.272 370.135 112.272C367.383 112.272 365.303 112.4 363.895 112.656V140.496ZM362.263 109.68L373.015 109.392C388.247 109.392 395.863 114.864 395.863 125.808C395.863 130.672 394.135 134.64 390.679 137.712C387.223 140.784 382.775 142.32 377.335 142.32H375.127C382.423 143.28 387.415 145.488 390.103 148.944C392.855 152.4 394.231 157.648 394.231 164.688C394.231 169.04 395.127 171.696 396.919 172.656C397.559 173.04 398.487 173.232 399.703 173.232C400.983 173.232 402.711 172.72 404.887 171.696L404.983 174C401.527 175.472 398.007 176.208 394.423 176.208C387.255 176.208 382.935 173.52 381.463 168.144C380.951 165.904 380.695 163.12 380.695 159.792C380.695 156.4 380.471 153.808 380.023 152.016C379.639 150.16 379.031 148.656 378.199 147.504C376.343 144.688 372.855 143.28 367.735 143.28H363.895V170.832L371.191 171.696V174H344.119V171.696L351.223 170.928V112.848L342.967 111.696V109.296C348.343 109.552 353.175 109.68 357.463 109.68H362.263ZM473.812 174H445.588V171.696L453.364 170.832L444.532 148.752H422.932L415.252 169.2L423.796 171.696V174H403.732V171.696L411.028 169.2L434.26 109.872H440.98L466.42 170.832L473.812 171.696V174ZM443.092 145.2L433.684 121.872L424.276 145.2H443.092ZM523.881 109.872H543.273V112.176L536.553 114.48V174H530.025L487.305 121.392V169.296L495.369 171.696V174H476.169V171.696L483.177 169.296V113.04L474.825 112.176V109.872H492.873L531.273 157.68V114.384L523.881 112.176V109.872ZM621.336 141.84C621.336 163.28 608.024 174 581.4 174H551.352V171.696L559.608 170.736V113.232L551.352 112.08V109.584C554.296 109.776 557.72 109.872 561.624 109.872H570.84L582.744 109.488C588.568 109.488 593.656 109.968 598.008 110.928C602.424 111.888 606.456 113.52 610.104 115.824C617.592 120.56 621.336 129.232 621.336 141.84ZM606.84 141.936C606.84 130.864 604.76 123.184 600.6 118.896C599.256 117.424 598.008 116.336 596.856 115.632C595.704 114.864 594.264 114.288 592.536 113.904C590.168 113.328 587.384 112.976 584.184 112.848H582.744C578.072 112.848 574.648 113.008 572.472 113.328V170.64L581.4 170.928C587.48 170.672 591.992 169.84 594.936 168.432C602.872 164.656 606.84 155.824 606.84 141.936ZM671.364 174H641.892V171.696L650.244 170.832V146.448L628.356 113.04L621.06 112.176V109.872H649.86V112.176L642.468 113.04L660.708 141.456L676.356 114.384L669.156 112.176V109.872H688.644V112.176L681.348 114.48L663.012 145.68V170.832L671.364 171.696V174ZM740.698 109.872H760.09V112.176L753.37 114.48V174H746.842L704.122 121.392V169.296L712.186 171.696V174H692.986V171.696L699.994 169.296V113.04L691.642 112.176V109.872H709.69L748.09 157.68V114.384L740.698 112.176V109.872Z" fill="#100F0F"/>
<path d="M938.042 141.84C938.042 163.28 924.73 174 898.106 174H868.058V171.696L876.314 170.736V113.232L868.058 112.08V109.584C871.002 109.776 874.426 109.872 878.33 109.872H887.546L899.45 109.488C905.274 109.488 910.362 109.968 914.714 110.928C919.13 111.888 923.162 113.52 926.81 115.824C934.298 120.56 938.042 129.232 938.042 141.84ZM923.546 141.936C923.546 130.864 921.466 123.184 917.306 118.896C915.962 117.424 914.714 116.336 913.562 115.632C912.41 114.864 910.97 114.288 909.242 113.904C906.874 113.328 904.09 112.976 900.89 112.848H899.45C894.778 112.848 891.354 113.008 889.178 113.328V170.64L898.106 170.928C904.186 170.672 908.698 169.84 911.642 168.432C919.578 164.656 923.546 155.824 923.546 141.936ZM1013.94 141.744C1013.94 151.344 1010.93 159.312 1004.92 165.648C998.965 171.92 990.901 175.056 980.725 175.056C970.613 175.056 962.549 171.92 956.533 165.648C950.581 159.312 947.605 151.344 947.605 141.744C947.605 132.144 950.581 124.208 956.533 117.936C962.549 111.6 970.613 108.432 980.725 108.432C990.901 108.432 998.965 111.6 1004.92 117.936C1010.93 124.208 1013.94 132.144 1013.94 141.744ZM980.917 172.08C993.205 172.08 999.349 161.968 999.349 141.744C999.349 132.016 997.941 124.528 995.125 119.28C992.373 114.032 987.605 111.408 980.821 111.408C974.037 111.408 969.205 114.032 966.325 119.28C963.509 124.528 962.101 132.016 962.101 141.744C962.101 161.968 968.373 172.08 980.917 172.08ZM1063.75 174H1034.28V171.696L1042.63 170.832V146.448L1020.74 113.04L1013.45 112.176V109.872H1042.25V112.176L1034.85 113.04L1053.09 141.456L1068.74 114.384L1061.54 112.176V109.872H1081.03V112.176L1073.73 114.48L1055.4 145.68V170.832L1063.75 171.696V174ZM1148.42 141.744C1148.42 151.344 1145.42 159.312 1139.4 165.648C1133.45 171.92 1125.38 175.056 1115.21 175.056C1105.1 175.056 1097.03 171.92 1091.02 165.648C1085.06 159.312 1082.09 151.344 1082.09 141.744C1082.09 132.144 1085.06 124.208 1091.02 117.936C1097.03 111.6 1105.1 108.432 1115.21 108.432C1125.38 108.432 1133.45 111.6 1139.4 117.936C1145.42 124.208 1148.42 132.144 1148.42 141.744ZM1115.4 172.08C1127.69 172.08 1133.83 161.968 1133.83 141.744C1133.83 132.016 1132.42 124.528 1129.61 119.28C1126.86 114.032 1122.09 111.408 1115.3 111.408C1108.52 111.408 1103.69 114.032 1100.81 119.28C1097.99 124.528 1096.58 132.016 1096.58 141.744C1096.58 161.968 1102.86 172.08 1115.4 172.08Z" fill="#1E1E1E"/>
</svg>
