<svg width="280" height="68" viewBox="0 0 280 68" fill="none" xmlns="http://www.w3.org/2000/svg">
<rect width="280" height="68" fill="#E5E5E5"/>
<path d="M14 51H35H56" stroke="white" stroke-width="4"/>
<path d="M29 51L34 24" stroke="white" stroke-width="3"/>
<path d="M37.1827 24.0456L42.5467 51.3335" stroke="white" stroke-width="3"/>
<path d="M48.5 50C50.433 50 52 48.6569 52 47C52 45.3431 50.433 44 48.5 44C46.567 44 45 45.3431 45 47C45 48.6569 46.567 50 48.5 50Z" fill="white"/>
<path d="M54 50C55.1046 50 56 49.3284 56 48.5C56 47.6716 55.1046 47 54 47C52.8954 47 52 47.6716 52 48.5C52 49.3284 52.8954 50 54 50Z" fill="white"/>
<path d="M46 51V47" stroke="white" stroke-width="3"/>
<path d="M53 51V48" stroke="white" stroke-width="3"/>
<path d="M49 45L53 42" stroke="white" stroke-width="6"/>
<path d="M51 51V47" stroke="white" stroke-width="3"/>
<path d="M55 51V48" stroke="white" stroke-width="3"/>
<path d="M50.7501 24L55.9338 25.4602C56.8618 25.7215 57.2821 26.6946 56.7961 27.4564L54.3358 31.3141C53.9817 31.8693 53.2498 32.1284 52.5734 31.9379L51.0653 31.5133C50.372 31.318 49.9293 30.7051 50.0093 30.0517L50.7501 24Z" fill="white"/>
<path d="M51 31L49 35" stroke="white" stroke-width="5"/>
<path fill-rule="evenodd" clip-rule="evenodd" d="M20.8434 4.15261C18.8776 3.63949 16.788 4.46489 15.0308 5.96026C13.2553 7.47106 11.694 9.75839 10.7156 12.472C9.70001 15.2887 9.89788 18.3356 10.4911 20.6627C10.7883 21.8287 11.1917 22.8421 11.6156 23.5797C11.826 23.9459 12.0553 24.2683 12.298 24.5091C12.4285 24.6386 12.6116 24.7937 12.8403 24.8943L12.8032 25H14.017L14.2067 24.8668L23.6538 18.2367L24 17.9938L23.9233 17.5978L23.3704 14.7447L23.4057 14.6472L23.374 14.4825L21.4959 4.71075L21.4217 4.32463L21.0193 4.20229C20.9899 4.19334 20.9605 4.1847 20.9309 4.17637L20.8228 4.50498L20.7379 4.49958L20.8434 4.15261ZM22.4518 17.4337L13.8162 23.4942L13.4925 23.3032L13.2449 23.5172C13.1346 23.3883 13.0056 23.205 12.8665 22.9631C12.5124 22.3469 12.1464 21.4444 11.8702 20.3611C11.3167 18.1896 11.1523 15.4044 12.0597 12.8877C12.9756 10.3474 14.4198 8.26247 15.9895 6.92671C17.4647 5.67135 18.9462 5.15462 20.1807 5.35693L21.9472 14.5478L21.9117 14.6462L21.9436 14.8114L22.4518 17.4337Z" fill="white"/>
<path d="M12 12L23 14.5473L22.0959 17L12 12Z" fill="white"/>
<path d="M10 14L23 16.7594L22.0497 19L10 14Z" fill="white"/>
<path fill-rule="evenodd" clip-rule="evenodd" d="M55.7189 26.959L19 16.6218L19.7516 15L56.3133 25.2927C56.8311 25.4387 57.1178 25.9298 56.9538 26.3899C56.7896 26.85 56.2368 27.1047 55.7189 26.959Z" fill="white"/>
<path d="M12 11L10 14.9906V24.7453V58" stroke="white" stroke-width="2"/>
<path d="M40 23H31V24H40V23Z" fill="#FDFDFD"/>
<path d="M38 21H34V23H38V21Z" fill="white"/>
<path d="M31 36H40" stroke="white" stroke-width="3"/>
<path d="M10 26V29" stroke="white" stroke-width="4"/>
<path d="M37 28L32 36" stroke="white"/>
<path d="M33.5387 27.7878L39.3903 36.1503" stroke="white"/>
<path d="M35 36V51" stroke="white"/>
<path d="M37 36V51" stroke="white"/>
<path d="M35 38H37" stroke="white"/>
<path d="M35 39H37" stroke="white"/>
<path d="M35 39H37" stroke="white"/>
<path d="M35 40H37" stroke="white"/>
<path d="M35 42H37" stroke="white"/>
<path d="M35 43H37" stroke="white"/>
<path d="M35 45H37" stroke="white"/>
<path d="M35 47H37" stroke="white"/>
<path d="M35 48H37" stroke="white"/>
<path d="M35 50H37" stroke="white"/>
<path d="M50 34C50 34 47.75 34.4444 50 46" stroke="white" stroke-width="2"/>
<path d="M48 48C49.1046 48 50 47.3284 50 46.5C50 45.6716 49.1046 45 48 45C46.8954 45 46 45.6716 46 46.5C46 47.3284 46.8954 48 48 48Z" stroke="#BE6363"/>
<path d="M54 49C54.5523 49 55 48.5523 55 48C55 47.4477 54.5523 47 54 47C53.4477 47 53 47.4477 53 48C53 48.5523 53.4477 49 54 49Z" stroke="#EB8D00"/>
<path d="M53 47L49 44" stroke="white"/>
<path d="M75.8289 24.3242C79.5551 24.3242 81.4182 25.4553 81.4182 27.7176C81.4182 28.6398 81.0986 29.4107 80.4594 30.0303C79.8202 30.6354 78.8925 31.0029 77.6764 31.1326C79.2511 31.4063 80.397 31.8314 81.1142 32.4078C81.8314 32.9842 82.19 33.7983 82.19 34.8501C82.19 36.1758 81.5819 37.1628 80.3658 37.8112C79.1497 38.4452 77.5673 38.7622 75.6184 38.7622H69.2806V38.2435L70.9878 38.0274V25.0375L69 24.8213V24.3242H75.8289ZM74.7531 31.5648L74.145 31.5865V38.1571C74.4413 38.2291 74.7843 38.2651 75.174 38.2651C76.2498 38.2651 77.1541 37.9914 77.8869 37.4438C78.6197 36.8818 78.986 35.9597 78.986 34.6772C78.986 33.049 78.2221 32.0764 76.6942 31.7594C76.0705 31.6297 75.4235 31.5648 74.7531 31.5648ZM74.145 24.9078V30.9597H74.7063C75.7977 30.9597 76.6474 30.6859 77.2554 30.1383C77.8635 29.5908 78.1675 28.7983 78.1675 27.7608C78.1675 26.7089 77.9336 25.9741 77.4659 25.5562C76.9982 25.1239 76.2498 24.9078 75.2208 24.9078H74.145ZM210 31.5C210 33.6614 209.267 35.4553 207.802 36.8818C206.352 38.2939 204.387 39 201.908 39C199.445 39 197.48 38.2939 196.015 36.8818C194.565 35.4553 193.84 33.6614 193.84 31.5C193.84 29.3386 194.565 27.5519 196.015 26.1398C197.48 24.7133 199.445 24 201.908 24C204.387 24 206.352 24.7133 207.802 26.1398C209.267 27.5519 210 29.3386 210 31.5ZM201.955 38.33C204.949 38.33 206.445 36.0533 206.445 31.5C206.445 29.3098 206.102 27.6239 205.416 26.4424C204.746 25.2608 203.584 24.67 201.932 24.67C200.279 24.67 199.102 25.2608 198.4 26.4424C197.714 27.6239 197.371 29.3098 197.371 31.5C197.371 36.0533 198.899 38.33 201.955 38.33Z" fill="#DE0E0E"/>
<path d="M89.0674 30.9943H89.8577C92.3372 30.9943 93.5769 29.8967 93.5769 27.7016C93.5769 26.6399 93.3367 25.8723 92.8563 25.3989C92.3759 24.911 91.6166 24.6671 90.5783 24.6671C89.912 24.6671 89.4083 24.6958 89.0674 24.7532V30.9943ZM88.6722 24.0861L91.2757 24.0215C94.9639 24.0215 96.808 25.2482 96.808 27.7016C96.808 28.792 96.3895 29.6815 95.5527 30.3702C94.7159 31.0588 93.6389 31.4032 92.3217 31.4032H91.7871C93.5537 31.6184 94.7624 32.1133 95.4133 32.8881C96.0796 33.6628 96.4128 34.8393 96.4128 36.4175C96.4128 37.3931 96.6298 37.9885 97.0637 38.2037C97.2186 38.2898 97.4433 38.3329 97.7378 38.3329C98.0477 38.3329 98.4661 38.2181 98.993 37.9885L99.0162 38.505C98.1794 38.835 97.3271 39 96.4593 39C94.7237 39 93.6776 38.3974 93.3212 37.1923C93.1972 36.6901 93.1353 36.066 93.1353 35.3199C93.1353 34.5595 93.081 33.9785 92.9725 33.5768C92.8796 33.1607 92.7323 32.8235 92.5309 32.5653C92.0815 31.934 91.2369 31.6184 89.9972 31.6184H89.0674V37.7948L90.834 37.9885V38.505H84.2789V37.9885L85.9991 37.8164V24.7963L84 24.538V24C85.3017 24.0574 86.4717 24.0861 87.51 24.0861H88.6722ZM115.682 38.505H108.848V37.9885L110.731 37.7948L108.592 32.8451H103.362L101.503 37.429L103.572 37.9885V38.505H98.7133V37.9885L100.48 37.429L106.105 24.1291H107.732L113.892 37.7948L115.682 37.9885V38.505ZM108.244 32.0488L105.966 26.8192L103.688 32.0488H108.244ZM127.806 24.1291H132.501V24.6456L130.874 25.1621V38.505H129.293L118.949 26.7116V37.4505L120.902 37.9885V38.505H116.253V37.9885L117.95 37.4505V24.8393L115.927 24.6456V24.1291H120.297L129.595 34.8465V25.1406L127.806 24.6456V24.1291ZM151.403 31.2956C151.403 36.1019 148.18 38.505 141.733 38.505H134.457V37.9885L136.456 37.7733V24.8824L134.457 24.6241V24.0646C135.17 24.1076 135.999 24.1291 136.944 24.1291H139.176L142.058 24.043C143.469 24.043 144.701 24.1506 145.754 24.3659C146.824 24.5811 147.8 24.9469 148.683 25.4634C150.496 26.5251 151.403 28.4692 151.403 31.2956ZM147.893 31.3171C147.893 28.835 147.389 27.1133 146.382 26.1521C146.056 25.8221 145.754 25.5782 145.475 25.4204C145.196 25.2482 144.848 25.1191 144.429 25.033C143.856 24.9039 143.182 24.825 142.407 24.7963H142.058C140.927 24.7963 140.098 24.8321 139.571 24.9039V37.7518L141.733 37.8164C143.205 37.759 144.298 37.5725 145.01 37.2568C146.932 36.4103 147.893 34.4304 147.893 31.3171ZM163.516 38.505H156.38V37.9885L158.402 37.7948V32.3286L153.103 24.8393L151.336 24.6456V24.1291H158.309V24.6456L156.52 24.8393L160.936 31.2095L164.725 25.1406L162.982 24.6456V24.1291H167.7V24.6456L165.934 25.1621L161.494 32.1564V37.7948L163.516 37.9885V38.505ZM180.305 24.1291H185V24.6456L183.373 25.1621V38.505H181.792L171.448 26.7116V37.4505L173.401 37.9885V38.505H168.752V37.9885L170.449 37.4505V24.8393L168.426 24.6456V24.1291H172.796L182.094 34.8465V25.1406L180.305 24.6456V24.1291Z" fill="white"/>
<path d="M228.974 31.5216C228.974 36.3487 225.745 38.7622 219.288 38.7622H212V38.2435L214.002 38.0274V25.0807L212 24.8213V24.2594C212.714 24.3026 213.545 24.3242 214.491 24.3242H216.727L219.614 24.2378C221.027 24.2378 222.261 24.3458 223.316 24.562C224.387 24.7781 225.365 25.1455 226.25 25.6643C228.066 26.7305 228.974 28.683 228.974 31.5216ZM225.458 31.5432C225.458 29.0504 224.954 27.3213 223.945 26.3559C223.619 26.0245 223.316 25.7795 223.037 25.621C222.757 25.4481 222.408 25.3184 221.989 25.232C221.415 25.1023 220.739 25.0231 219.963 24.9942H219.614C218.481 24.9942 217.65 25.0303 217.123 25.1023V38.0058L219.288 38.0706C220.763 38.013 221.857 37.8256 222.571 37.5086C224.496 36.6585 225.458 34.67 225.458 31.5432ZM247.383 31.5C247.383 33.6614 246.653 35.4553 245.195 36.8818C243.751 38.2939 241.795 39 239.327 39C236.874 39 234.918 38.2939 233.459 36.8818C232.015 35.4553 231.294 33.6614 231.294 31.5C231.294 29.3386 232.015 27.5519 233.459 26.1398C234.918 24.7133 236.874 24 239.327 24C241.795 24 243.751 24.7133 245.195 26.1398C246.653 27.5519 247.383 29.3386 247.383 31.5ZM239.373 38.33C242.354 38.33 243.844 36.0533 243.844 31.5C243.844 29.3098 243.502 27.6239 242.819 26.4424C242.152 25.2608 240.995 24.67 239.35 24.67C237.705 24.67 236.533 25.2608 235.834 26.4424C235.151 27.6239 234.81 29.3098 234.81 31.5C234.81 36.0533 236.331 38.33 239.373 38.33ZM259.464 38.7622H252.316V38.2435L254.341 38.049V32.5591L249.032 25.0375L247.264 24.8429V24.3242H254.249V24.8429L252.454 25.0375L256.878 31.4352L260.674 25.3401L258.928 24.8429V24.3242H263.655V24.8429L261.884 25.3617L257.439 32.3862V38.049L259.464 38.2435V38.7622ZM280 31.5C280 33.6614 279.272 35.4553 277.812 36.8818C276.369 38.2939 274.412 39 271.945 39C269.493 39 267.536 38.2939 266.078 36.8818C264.632 35.4553 263.912 33.6614 263.912 31.5C263.912 29.3386 264.632 27.5519 266.078 26.1398C267.536 24.7133 269.493 24 271.945 24C274.412 24 276.369 24.7133 277.812 26.1398C279.272 27.5519 280 29.3386 280 31.5ZM271.991 38.33C274.972 38.33 276.461 36.0533 276.461 31.5C276.461 29.3098 276.119 27.6239 275.438 26.4424C274.771 25.2608 273.614 24.67 271.967 24.67C270.323 24.67 269.151 25.2608 268.453 26.4424C267.769 27.6239 267.427 29.3098 267.427 31.5C267.427 36.0533 268.95 38.33 271.991 38.33Z" fill="white"/>
</svg>
