<svg width="288" height="75" viewBox="0 0 96 25" fill="none" xmlns="http://www.w3.org/2000/svg">
<g clip-path="url(#clip0)">
<path d="M4.8 18.75H12H19.2" stroke="white" stroke-width="4"/>
<path d="M9.94286 18.75L11.6571 8.82353" stroke="white" stroke-width="3"/>
<path d="M12.7484 8.84029L14.5874 18.8726" stroke="white" stroke-width="3"/>
<path d="M16.6286 18.3824C17.2913 18.3824 17.8286 17.8885 17.8286 17.2794C17.8286 16.6703 17.2913 16.1765 16.6286 16.1765C15.9658 16.1765 15.4286 16.6703 15.4286 17.2794C15.4286 17.8885 15.9658 18.3824 16.6286 18.3824Z" fill="white"/>
<path d="M18.5143 18.3824C18.893 18.3824 19.2 18.1355 19.2 17.8309C19.2 17.5263 18.893 17.2794 18.5143 17.2794C18.1356 17.2794 17.8286 17.5263 17.8286 17.8309C17.8286 18.1355 18.1356 18.3824 18.5143 18.3824Z" fill="white"/>
<path d="M15.7714 18.75V17.2794" stroke="white" stroke-width="3"/>
<path d="M18.1714 18.75V17.6471" stroke="white" stroke-width="3"/>
<path d="M16.8 16.5441L18.1714 15.4412" stroke="white" stroke-width="6"/>
<path d="M17.4857 18.75V17.2794" stroke="white" stroke-width="3"/>
<path d="M18.8571 18.75V17.6471" stroke="white" stroke-width="3"/>
<path d="M17.393 8.89629L19.1708 9.43143C19.489 9.52723 19.6334 9.88483 19.4671 10.165L18.6249 11.5841C18.5037 11.7884 18.2529 11.8839 18.0209 11.8141L17.5037 11.6584C17.2659 11.5868 17.1139 11.3617 17.1411 11.1214L17.393 8.89629Z" fill="white"/>
<path d="M17.4857 11.3971L16.8 12.8676" stroke="white" stroke-width="5"/>
<path fill-rule="evenodd" clip-rule="evenodd" d="M7.14632 1.5267C6.47231 1.33805 5.7559 1.6415 5.1534 2.19127C4.54468 2.74672 4.00937 3.58765 3.67391 4.58531C3.32572 5.62086 3.39356 6.74102 3.59695 7.59657C3.69884 8.02524 3.83717 8.39784 3.9825 8.66901C4.05465 8.80364 4.13324 8.92217 4.21644 9.01072C4.26121 9.05832 4.32399 9.11534 4.40238 9.15233L4.38966 9.19118H4.80582L4.87088 9.1422L8.10987 6.70469L8.22857 6.61537L8.20226 6.46978L8.01272 5.42085L8.0248 5.385L8.01395 5.32445L7.37001 1.73189L7.34457 1.58994L7.20663 1.54496C7.19655 1.54167 7.18644 1.53849 7.17631 1.53543L7.13924 1.65624L7.11013 1.65426L7.14632 1.5267ZM7.69775 6.40944L4.737 8.63757L4.626 8.56736L4.54111 8.64601C4.5033 8.59865 4.45907 8.53126 4.41137 8.44231C4.28997 8.21577 4.16447 7.88398 4.0698 7.48571C3.88001 6.68735 3.82363 5.6634 4.13475 4.73813C4.44877 3.80421 4.94393 3.03767 5.48211 2.54658C5.9879 2.08506 6.49585 1.89508 6.91911 1.96946L7.52477 5.34846L7.51257 5.38465L7.52353 5.44537L7.69775 6.40944Z" fill="white"/>
<path d="M4.11428 4.41177L7.88571 5.34827L7.57574 6.25L4.11428 4.41177Z" fill="white"/>
<path d="M3.42857 5.14706L7.88572 6.16154L7.5599 6.98529L3.42857 5.14706Z" fill="white"/>
<path fill-rule="evenodd" clip-rule="evenodd" d="M19.0976 9.98253L6.50467 6.19402L6.76181 5.59754L19.3008 9.36975C19.4784 9.42323 19.5769 9.6037 19.5208 9.7729C19.4646 9.94211 19.2752 10.0359 19.0976 9.98253Z" fill="white"/>
<path d="M4.11429 4.04412L3.42857 5.51124V9.09752V21.3235" stroke="white" stroke-width="2"/>
<path d="M13.7143 8.45588H10.6286V8.82353H13.7143V8.45588Z" fill="#FDFDFD"/>
<path d="M13.0286 7.72059H11.6571V8.45588H13.0286V7.72059Z" fill="white"/>
<path d="M10.6286 13.2353H13.7143" stroke="white" stroke-width="3"/>
<path d="M3.42857 9.55882V10.6618" stroke="white" stroke-width="4"/>
<path d="M12.6857 10.2941L10.9714 13.2353" stroke="white"/>
<path d="M11.499 10.2161L13.5052 13.2905" stroke="white"/>
<path d="M12 13.2353V18.75" stroke="white"/>
<path d="M12.6857 13.2353V18.75" stroke="white"/>
<path d="M12 13.9706H12.6857" stroke="white"/>
<path d="M12 14.3382H12.6857" stroke="white"/>
<path d="M12 14.3382H12.6857" stroke="white"/>
<path d="M12 14.7059H12.6857" stroke="white"/>
<path d="M12 15.4412H12.6857" stroke="white"/>
<path d="M12 15.8088H12.6857" stroke="white"/>
<path d="M12 16.5441H12.6857" stroke="white"/>
<path d="M12 17.2794H12.6857" stroke="white"/>
<path d="M12 17.6471H12.6857" stroke="white"/>
<path d="M12 18.3824H12.6857" stroke="white"/>
<path d="M17.1429 12.5C17.1429 12.5 16.3714 12.6634 17.1429 16.9118" stroke="white" stroke-width="2"/>
<path d="M16.4571 17.6471C16.8359 17.6471 17.1429 17.4002 17.1429 17.0956C17.1429 16.791 16.8359 16.5441 16.4571 16.5441C16.0784 16.5441 15.7714 16.791 15.7714 17.0956C15.7714 17.4002 16.0784 17.6471 16.4571 17.6471Z" stroke="#BE6363"/>
<path d="M18.5143 18.0147C18.7036 18.0147 18.8571 17.8501 18.8571 17.6471C18.8571 17.444 18.7036 17.2794 18.5143 17.2794C18.3249 17.2794 18.1714 17.444 18.1714 17.6471C18.1714 17.8501 18.3249 18.0147 18.5143 18.0147Z" stroke="#EB8D00"/>
<path d="M18.1714 17.2794L16.8 16.1765" stroke="white"/>
<g filter="url(#filter0_d)">
<path d="M25.1382 15.409H25.4172C26.1432 15.409 26.5062 15.064 26.5062 14.374C26.5062 13.66 26.1432 13.303 25.4172 13.303H25.1382V15.409ZM25.1382 17.983H25.6422C26.0022 17.983 26.2872 17.89 26.4972 17.704C26.7072 17.518 26.8122 17.248 26.8122 16.894C26.8122 16.396 26.6892 16.054 26.4432 15.868C26.1972 15.682 25.8582 15.589 25.4262 15.589H25.1382V17.983ZM23.3382 18.163V17.983H23.7882V13.303H23.3382V13.123H25.6062C26.3502 13.123 26.8962 13.237 27.2442 13.465C27.5982 13.693 27.7752 14.005 27.7752 14.401C27.7752 14.719 27.6702 14.98 27.4602 15.184C27.2562 15.382 26.9802 15.481 26.6322 15.481V15.535C27.0642 15.535 27.4272 15.652 27.7212 15.886C28.0152 16.114 28.1622 16.441 28.1622 16.867C28.1622 17.293 27.9912 17.617 27.6492 17.839C27.3072 18.055 26.8182 18.163 26.1822 18.163H23.3382Z" fill="#F00000"/>
<path d="M30.4095 13.303V15.625C31.0095 15.625 31.4115 15.538 31.6155 15.364C31.8195 15.19 31.9215 14.899 31.9215 14.491C31.9215 14.083 31.8165 13.783 31.6065 13.591C31.3965 13.399 30.9975 13.303 30.4095 13.303ZM33.9465 18.253H33.5505C32.8005 18.253 32.2785 18.091 31.9845 17.767C31.7505 17.515 31.5915 17.182 31.5075 16.768C31.4715 16.594 31.4325 16.435 31.3905 16.291C31.2945 15.967 31.0995 15.805 30.8055 15.805H30.4095V17.983H30.8595V18.163H28.6095V17.983H29.0595V13.303H28.6095V13.123H30.9765C32.5065 13.123 33.2715 13.57 33.2715 14.464C33.2715 14.818 33.1425 15.106 32.8845 15.328C32.6265 15.55 32.2965 15.661 31.8945 15.661V15.724C32.4945 15.724 32.9115 16.12 33.1455 16.912C33.2655 17.332 33.3855 17.632 33.5055 17.812C33.6315 17.986 33.7785 18.073 33.9465 18.073V18.253ZM39.7318 17.983V18.163H37.3648V17.983H37.8958L37.2928 16.732H35.4748L34.9528 17.983H35.6638V18.163H34.1248V17.983H34.7278L36.7888 13.033H37.0138L39.2998 17.983H39.7318ZM35.5558 16.543H37.2028L36.3208 14.707L35.5558 16.543ZM40.718 17.983H41.438V18.163H39.998V17.983H40.538V13.699C40.346 13.435 40.166 13.303 39.998 13.303V13.123H41.681L44.21 16.12V13.303H43.49V13.123H45.02V13.303H44.39V18.253H44.21L40.718 13.924V17.983ZM47.8069 18.163H45.5569V17.983H46.0069V13.303H45.5569V13.123H47.8069C48.2509 13.123 48.6499 13.198 49.0039 13.348C49.3639 13.492 49.6549 13.684 49.8769 13.924C50.3269 14.422 50.5519 14.986 50.5519 15.616C50.5519 16.468 50.3269 17.107 49.8769 17.533C49.4269 17.953 48.7369 18.163 47.8069 18.163ZM47.3569 17.983C48.0049 17.983 48.4729 17.809 48.7609 17.461C49.0489 17.107 49.1929 16.534 49.1929 15.742C49.1929 14.944 49.0369 14.338 48.7249 13.924C48.4129 13.51 47.9569 13.303 47.3569 13.303V17.983ZM54.955 16.273H55.135V18.163H51.004V17.983L53.551 13.303H52.975C52.417 13.303 52.024 13.402 51.796 13.6C51.568 13.798 51.454 14.209 51.454 14.833H51.274V13.123H55.072V13.303L52.489 17.983H53.434C53.716 17.983 53.944 17.965 54.118 17.929C54.292 17.887 54.448 17.809 54.586 17.695C54.832 17.479 54.955 17.005 54.955 16.273ZM61.302 17.983H62.022V18.163H60.582V17.983H61.122V13.699C60.93 13.435 60.75 13.303 60.582 13.303V13.123H62.265L64.794 16.12V13.303H64.074V13.123H65.604V13.303H64.974V18.253H64.794L61.302 13.924V17.983ZM70.5419 14.653C70.5419 14.119 70.4519 13.762 70.2719 13.582C70.0979 13.396 69.7679 13.303 69.2819 13.303H69.0119V17.983H69.6419V18.163H67.0319V17.983H67.6619V13.303H67.3919C66.9119 13.303 66.5819 13.396 66.4019 13.582C66.2279 13.762 66.1409 14.119 66.1409 14.653H65.9609V13.123H70.7219V14.653H70.5419ZM73.9649 17.983C74.8649 17.983 75.3149 17.473 75.3149 16.453H75.4949V18.163H71.2649V17.983H71.7149V13.303H71.2649V13.123H75.4049V14.653H75.2249C75.2249 14.119 75.1169 13.762 74.9009 13.582C74.6909 13.396 74.3489 13.303 73.8749 13.303H73.0649V15.463H73.4249C73.8569 15.463 74.1299 15.409 74.2439 15.301C74.3579 15.193 74.4149 14.977 74.4149 14.653H74.5949V16.453H74.4149C74.4149 16.117 74.3579 15.898 74.2439 15.796C74.1299 15.694 73.8569 15.643 73.4249 15.643H73.0649V17.983H73.9649ZM77.8792 13.303V15.625C78.4792 15.625 78.8812 15.538 79.0852 15.364C79.2892 15.19 79.3912 14.899 79.3912 14.491C79.3912 14.083 79.2862 13.783 79.0762 13.591C78.8662 13.399 78.4672 13.303 77.8792 13.303ZM81.4162 18.253H81.0202C80.2702 18.253 79.7482 18.091 79.4542 17.767C79.2202 17.515 79.0612 17.182 78.9772 16.768C78.9412 16.594 78.9022 16.435 78.8602 16.291C78.7642 15.967 78.5692 15.805 78.2752 15.805H77.8792V17.983H78.3292V18.163H76.0792V17.983H76.5292V13.303H76.0792V13.123H78.4462C79.9762 13.123 80.7412 13.57 80.7412 14.464C80.7412 14.818 80.6122 15.106 80.3542 15.328C80.0962 15.55 79.7662 15.661 79.3642 15.661V15.724C79.9642 15.724 80.3812 16.12 80.6152 16.912C80.7352 17.332 80.8552 17.632 80.9752 17.812C81.1012 17.986 81.2482 18.073 81.4162 18.073V18.253ZM84.1146 18.163H81.8646V17.983H82.3146V13.303H81.8646V13.123H84.1146V13.303H83.6646V17.983H84.1146V18.163ZM88.4443 15.634C88.4443 14.866 88.3393 14.269 88.1293 13.843C87.9253 13.411 87.6403 13.195 87.2743 13.195C86.9143 13.195 86.6293 13.411 86.4193 13.843C86.2093 14.275 86.1043 14.878 86.1043 15.652C86.1043 16.426 86.2033 17.023 86.4013 17.443C86.6053 17.863 86.8963 18.073 87.2743 18.073C88.0543 18.073 88.4443 17.26 88.4443 15.634ZM89.8933 15.688C89.8933 16.51 89.6503 17.143 89.1643 17.587C88.6783 18.031 88.0453 18.253 87.2653 18.253C86.4853 18.253 85.8553 18.034 85.3753 17.596C84.8953 17.152 84.6553 16.519 84.6553 15.697C84.6553 14.869 84.8953 14.215 85.3753 13.735C85.8553 13.255 86.4913 13.015 87.2833 13.015C88.0813 13.015 88.7143 13.255 89.1823 13.735C89.6563 14.209 89.8933 14.86 89.8933 15.688ZM92.1439 13.303V15.625C92.7439 15.625 93.1459 15.538 93.3499 15.364C93.5539 15.19 93.6559 14.899 93.6559 14.491C93.6559 14.083 93.5509 13.783 93.3409 13.591C93.1309 13.399 92.7319 13.303 92.1439 13.303ZM95.6809 18.253H95.2849C94.5349 18.253 94.0129 18.091 93.7189 17.767C93.4849 17.515 93.3259 17.182 93.2419 16.768C93.2059 16.594 93.1669 16.435 93.1249 16.291C93.0289 15.967 92.8339 15.805 92.5399 15.805H92.1439V17.983H92.5939V18.163H90.3439V17.983H90.7939V13.303H90.3439V13.123H92.7109C94.2409 13.123 95.0059 13.57 95.0059 14.464C95.0059 14.818 94.8769 15.106 94.6189 15.328C94.3609 15.55 94.0309 15.661 93.6289 15.661V15.724C94.2289 15.724 94.6459 16.12 94.8799 16.912C94.9999 17.332 95.1199 17.632 95.2399 17.812C95.3659 17.986 95.5129 18.073 95.6809 18.073V18.253Z" fill="white"/>
<path d="M60.0413 18.163H57.7913V17.983H58.2413V13.303H57.7913V13.123H60.0413V13.303H59.5913V17.983H60.0413V18.163Z" fill="#FF0000"/>
</g>
</g>
<defs>
<filter id="filter0_d" x="19.3382" y="13.015" width="80.3427" height="13.238" filterUnits="userSpaceOnUse" color-interpolation-filters="sRGB">
<feFlood flood-opacity="0" result="BackgroundImageFix"/>
<feColorMatrix in="SourceAlpha" type="matrix" values="0 0 0 0 0 0 0 0 0 0 0 0 0 0 0 0 0 0 127 0"/>
<feOffset dy="4"/>
<feGaussianBlur stdDeviation="2"/>
<feColorMatrix type="matrix" values="0 0 0 0 1 0 0 0 0 0.975 0 0 0 0 0.975 0 0 0 0.25 0"/>
<feBlend mode="normal" in2="BackgroundImageFix" result="effect1_dropShadow"/>
<feBlend mode="normal" in="SourceGraphic" in2="effect1_dropShadow" result="shape"/>
</filter>
<clipPath id="clip0">
<rect width="96" height="25" fill="white"/>
</clipPath>
</defs>
</svg>
