<svg width="180.5" height="62" viewBox="0 0 361 124" fill="none" xmlns="http://www.w3.org/2000/svg">
<path d="M102.255 85.914L100.784 87.8795C95.082 91.6877 86.7253 97.1719 78.7123 102.246C68.1144 108.956 58.1178 114.949 55.6599 115.397L52.7171 115.397L51.2456 115.397L6.61231 91.3192L5.14088 90.3364L4.15993 88.8623L3.17897 87.3882L2.19802 85.914L2.19802 84.4399L1.70755 83.4571L1.21707 60.3623L53.2075 88.3709L65.9599 80.0175L50.2647 71.1726L49.7742 70.6813L49.2837 69.6985L49.7742 68.7158L50.2647 67.733L67.9218 56.9226L70.8647 54.9571L71.8456 54.9571L72.8266 55.4485L89.5028 64.2933L93.9171 66.7502L96.8599 68.2244L98.8218 69.6985L100.293 70.6813L101.274 72.1554L102.255 74.1209L103.236 75.5951L103.727 77.5606L103.727 81.4916L103.236 82.4744L102.255 85.914Z" fill="#FEDA8A"/>
<path d="M35.5504 59.3795L32.1171 61.3451L31.1361 61.3451L7.59326 48.5692L6.12183 47.5864L4.15993 45.6209L2.6885 43.6554L1.21707 40.7071L0.726593 38.7416L0.726593 36.7761L0.726593 34.8106L1.21707 33.3364L2.6885 30.3882L4.15993 28.4226L13.479 22.6012L19.1056 19.0864L45.8504 2.37954L47.8123 1.39679L49.7742 1.39679L51.7361 1.39679L53.698 1.88816L97.8409 25.4744L99.3123 26.9485L100.784 28.914L101.765 30.8795L102.255 32.3537L102.746 56.4313L51.2456 28.4226L38.4933 36.2847L54.1885 45.6209L54.679 46.6037L54.1885 48.0778L41.9266 55.4485L35.5504 59.3795Z" fill="#FEDA8A"/>
<path d="M65.9599 80.0175L50.2647 71.1726L49.7742 70.6813L49.2837 69.6985L49.7742 68.7158L50.2647 67.733L67.9218 56.9226L70.8647 54.9571L71.8456 54.9571L72.8266 55.4485L89.5028 64.2933L93.9171 66.7502L96.8599 68.2244L98.8218 69.6985L100.293 70.6813L101.274 72.1554L102.255 74.1209L103.236 75.5951L103.727 77.5606L103.727 81.4916L103.236 82.4744L102.255 85.914L100.784 87.8795C95.082 91.6877 86.7253 97.1719 78.7123 102.246M65.9599 80.0175L53.2075 88.3709M65.9599 80.0175L78.7123 86.8968L80.6742 88.8623L81.6552 90.3364L82.6361 93.2847L82.6361 95.7416L81.1647 99.1813M53.2075 88.3709L1.21707 60.3623L1.70755 83.4571L2.19802 84.4399L2.19802 85.914L3.17897 87.3882L4.15993 88.8623L5.14088 90.3364L6.61231 91.3192L51.2456 115.397L52.7171 115.397L55.6599 115.397C58.1178 114.949 68.1144 108.956 78.7123 102.246M53.2075 88.3709C57.4583 90.5579 65.9599 94.9955 65.9599 95.2502C65.9599 95.5049 66.6139 96.0115 66.9409 96.233L67.9218 97.2158L68.9028 98.6899C69.0663 99.0175 69.3933 99.7709 69.3933 100.164C69.3933 100.557 69.3933 101.474 69.3933 101.883L69.3933 103.604L68.9028 105.569L67.9218 107.535L66.9409 109.259L78.7123 102.246M38.4933 36.2847L54.1885 45.6209L54.679 46.6037L54.1885 48.0778L41.9266 55.4485L35.5504 59.3795L32.1171 61.3451L31.1361 61.3451L7.59326 48.5692L6.12183 47.5864L4.15993 45.6209L2.6885 43.6554L1.21707 40.7071L0.726593 38.7416L0.726593 36.7761L0.726593 34.8106L1.21707 33.3364L2.6885 30.3882L4.15993 28.4226L13.479 22.6012M38.4933 36.2847L51.2456 28.4226M38.4933 36.2847L13.479 22.6012M51.2456 28.4226L102.746 56.4313L102.255 32.3537L101.765 30.8795L100.784 28.914L99.3123 26.9485L97.8409 25.4744L53.698 1.88816L51.7361 1.39679L49.7742 1.39679L47.8123 1.39679L45.8504 2.37954L19.1056 19.0864M51.2456 28.4226L45.8504 25.5778L32.6075 18.5951L29.1742 18.1037L25.7409 18.1037L22.3075 18.5951L19.1056 19.0864M13.479 22.6012L19.1056 19.0864" stroke="white" stroke-opacity="0.2"/>
<path d="M51.4074 28.613L38.684 36.3968L13.7266 22.7752L19.5989 19.3698L25.9606 18.3968L28.8968 18.3968L32.8117 18.8833L51.4074 28.613Z" fill="#F45A5A"/>
<path d="M53.3649 87.9644L66.0883 79.6941L78.8117 86.5049L81.7479 89.9103L82.7266 92.3427L82.7266 95.2617L80.2798 100.613L67.5564 108.397L69.0245 104.991L69.5138 103.045L69.5138 100.613L69.0245 98.1806L67.5564 96.2346L66.0883 94.7752L53.3649 87.9644Z" fill="#F45A5A"/>
<path d="M51.4074 28.613L38.684 36.3968L13.7266 22.7752L19.5989 19.3698L25.9606 18.3968L28.8968 18.3968L32.8117 18.8833L51.4074 28.613Z" stroke="white" stroke-opacity="0.2"/>
<path d="M53.3649 87.9644L66.0883 79.6941L78.8117 86.5049L81.7479 89.9103L82.7266 92.3427L82.7266 95.2617L80.2798 100.613L67.5564 108.397L69.0245 104.991L69.5138 103.045L69.5138 100.613L69.0245 98.1806L67.5564 96.2346L66.0883 94.7752L53.3649 87.9644Z" stroke="white" stroke-opacity="0.2"/>
<g filter="url(#filter0_d)">
<path d="M139.892 68.136C139.676 67.896 139.22 67.584 138.524 67.2C137.828 66.792 136.988 66.432 136.004 66.12C135.044 65.784 134.048 65.616 133.016 65.616C130.304 65.616 128.948 66.576 128.948 68.496C128.948 69.192 129.164 69.744 129.596 70.152C130.028 70.56 130.676 70.908 131.54 71.196C132.404 71.484 133.484 71.796 134.78 72.132C136.46 72.564 137.912 73.068 139.136 73.644C140.384 74.22 141.332 74.988 141.98 75.948C142.652 76.884 142.988 78.132 142.988 79.692C142.988 81.516 142.544 82.992 141.656 84.12C140.792 85.224 139.64 86.028 138.2 86.532C136.76 87.036 135.2 87.288 133.52 87.288C131.6 87.288 129.692 87 127.796 86.424C125.924 85.824 124.256 85.008 122.792 83.976L124.988 79.692C125.204 79.908 125.588 80.196 126.14 80.556C126.692 80.892 127.364 81.24 128.156 81.6C128.948 81.936 129.812 82.224 130.748 82.464C131.684 82.704 132.632 82.824 133.592 82.824C136.328 82.824 137.696 81.948 137.696 80.196C137.696 79.452 137.42 78.852 136.868 78.396C136.316 77.94 135.536 77.556 134.528 77.244C133.544 76.932 132.392 76.584 131.072 76.2C129.44 75.744 128.084 75.24 127.004 74.688C125.948 74.112 125.156 73.404 124.628 72.564C124.1 71.7 123.836 70.608 123.836 69.288C123.836 67.536 124.244 66.072 125.06 64.896C125.9 63.696 127.028 62.796 128.444 62.196C129.86 61.572 131.432 61.26 133.16 61.26C134.936 61.26 136.592 61.548 138.128 62.124C139.664 62.7 140.984 63.36 142.088 64.104L139.892 68.136ZM153.128 61.44H158.168L167.564 87H162.452L160.076 80.628H151.148L148.808 87H143.696L153.128 61.44ZM159.176 77.136L155.648 66.588L151.976 77.136H159.176ZM191.211 87V70.224L184.659 82.716H181.887L175.335 70.224V87H170.367V61.44H175.695L183.255 75.984L190.887 61.44H196.179V87H191.211ZM220.632 65.796H212.46V87H207.528V65.796H199.356V61.44H220.632V65.796ZM241.553 82.644V87H223.805V61.44H241.229V65.796H228.773V71.952H239.537V75.984H228.773V82.644H241.553ZM245.426 87V61.44H256.73C257.906 61.44 258.986 61.68 259.97 62.16C260.978 62.64 261.842 63.288 262.562 64.104C263.306 64.92 263.87 65.832 264.254 66.84C264.662 67.848 264.866 68.88 264.866 69.936C264.866 71.568 264.446 73.068 263.606 74.436C262.79 75.804 261.674 76.788 260.258 77.388L266.09 87H260.618L255.362 78.432H250.394V87H245.426ZM250.394 74.076H256.622C257.558 74.076 258.326 73.68 258.926 72.888C259.55 72.072 259.862 71.088 259.862 69.936C259.862 69.144 259.694 68.436 259.358 67.812C259.022 67.188 258.59 66.696 258.062 66.336C257.558 65.976 257.006 65.796 256.406 65.796H250.394V74.076ZM269.367 87V61.44H274.335V87H269.367ZM290.576 87.18C288.704 87.18 287 86.82 285.464 86.1C283.952 85.38 282.644 84.408 281.54 83.184C280.46 81.936 279.62 80.544 279.02 79.008C278.42 77.448 278.12 75.852 278.12 74.22C278.12 72.516 278.432 70.896 279.056 69.36C279.68 67.8 280.556 66.42 281.684 65.22C282.812 63.996 284.132 63.036 285.644 62.34C287.18 61.62 288.86 61.26 290.684 61.26C292.532 61.26 294.212 61.632 295.724 62.376C297.26 63.12 298.568 64.116 299.648 65.364C300.752 66.612 301.592 68.016 302.168 69.576C302.768 71.112 303.068 72.684 303.068 74.292C303.068 75.972 302.756 77.592 302.132 79.152C301.508 80.688 300.632 82.068 299.504 83.292C298.4 84.492 297.08 85.44 295.544 86.136C294.032 86.832 292.376 87.18 290.576 87.18ZM283.16 74.22C283.16 75.708 283.448 77.1 284.024 78.396C284.624 79.692 285.476 80.748 286.58 81.564C287.708 82.38 289.052 82.788 290.612 82.788C292.22 82.788 293.576 82.368 294.68 81.528C295.784 80.688 296.624 79.608 297.2 78.288C297.776 76.968 298.064 75.612 298.064 74.22C298.064 72.732 297.764 71.34 297.164 70.044C296.564 68.748 295.7 67.704 294.572 66.912C293.468 66.096 292.148 65.688 290.612 65.688C289.004 65.688 287.648 66.108 286.544 66.948C285.44 67.788 284.6 68.868 284.024 70.188C283.448 71.484 283.16 72.828 283.16 74.22ZM306.879 87V61.44H318.183C319.359 61.44 320.439 61.68 321.423 62.16C322.431 62.64 323.295 63.288 324.015 64.104C324.759 64.92 325.323 65.832 325.707 66.84C326.115 67.848 326.319 68.88 326.319 69.936C326.319 71.568 325.899 73.068 325.059 74.436C324.243 75.804 323.127 76.788 321.711 77.388L327.543 87H322.071L316.815 78.432H311.847V87H306.879ZM311.847 74.076H318.075C319.011 74.076 319.779 73.68 320.379 72.888C321.003 72.072 321.315 71.088 321.315 69.936C321.315 69.144 321.147 68.436 320.811 67.812C320.475 67.188 320.043 66.696 319.515 66.336C319.011 65.976 318.459 65.796 317.859 65.796H311.847V74.076ZM346.048 68.136C345.832 67.896 345.376 67.584 344.68 67.2C343.984 66.792 343.144 66.432 342.16 66.12C341.2 65.784 340.204 65.616 339.172 65.616C336.46 65.616 335.104 66.576 335.104 68.496C335.104 69.192 335.32 69.744 335.752 70.152C336.184 70.56 336.832 70.908 337.696 71.196C338.56 71.484 339.64 71.796 340.936 72.132C342.616 72.564 344.068 73.068 345.292 73.644C346.54 74.22 347.488 74.988 348.136 75.948C348.808 76.884 349.144 78.132 349.144 79.692C349.144 81.516 348.7 82.992 347.812 84.12C346.948 85.224 345.796 86.028 344.356 86.532C342.916 87.036 341.356 87.288 339.676 87.288C337.756 87.288 335.848 87 333.952 86.424C332.08 85.824 330.412 85.008 328.948 83.976L331.144 79.692C331.36 79.908 331.744 80.196 332.296 80.556C332.848 80.892 333.52 81.24 334.312 81.6C335.104 81.936 335.968 82.224 336.904 82.464C337.84 82.704 338.788 82.824 339.748 82.824C342.484 82.824 343.852 81.948 343.852 80.196C343.852 79.452 343.576 78.852 343.024 78.396C342.472 77.94 341.692 77.556 340.684 77.244C339.7 76.932 338.548 76.584 337.228 76.2C335.596 75.744 334.24 75.24 333.16 74.688C332.104 74.112 331.312 73.404 330.784 72.564C330.256 71.7 329.992 70.608 329.992 69.288C329.992 67.536 330.4 66.072 331.216 64.896C332.056 63.696 333.184 62.796 334.6 62.196C336.016 61.572 337.588 61.26 339.316 61.26C341.092 61.26 342.748 61.548 344.284 62.124C345.82 62.7 347.14 63.36 348.244 64.104L346.048 68.136Z" fill="white"/>
</g>
<g filter="url(#filter1_d)">
<path d="M118.078 98.238H119.698L116.98 111H115.36L118.078 98.238ZM121.729 101.604H123.169L122.737 103.62C123.229 102.96 123.847 102.432 124.591 102.036C125.347 101.64 126.115 101.442 126.895 101.442C127.651 101.442 128.179 101.646 128.479 102.054C128.791 102.45 128.947 102.984 128.947 103.656C128.947 103.92 128.923 104.196 128.875 104.484C128.839 104.772 128.791 105.072 128.731 105.384L127.543 111H125.959L127.075 105.744C127.183 105.216 127.237 104.766 127.237 104.394C127.237 103.374 126.811 102.864 125.959 102.864C125.563 102.864 125.143 102.972 124.699 103.188C124.255 103.404 123.841 103.698 123.457 104.07C123.073 104.43 122.761 104.85 122.521 105.33L121.315 111H119.731L121.729 101.604ZM130.577 109.686C130.577 109.518 130.595 109.344 130.631 109.164L131.981 102.846H130.757L131.027 101.604H132.233L132.899 98.472H134.483L133.817 101.604H135.815L135.545 102.846H133.565L132.323 108.678C132.311 108.726 132.299 108.774 132.287 108.822C132.287 108.858 132.287 108.9 132.287 108.948C132.287 109.2 132.365 109.386 132.521 109.506C132.677 109.614 132.869 109.668 133.097 109.668C133.397 109.668 133.679 109.614 133.943 109.506C134.207 109.398 134.393 109.32 134.501 109.272L134.591 110.532C134.375 110.688 134.051 110.826 133.619 110.946C133.199 111.066 132.749 111.126 132.269 111.126C131.789 111.126 131.387 111.012 131.063 110.784C130.739 110.544 130.577 110.178 130.577 109.686ZM139.776 111.18C138.996 111.18 138.33 111.006 137.778 110.658C137.226 110.298 136.806 109.818 136.518 109.218C136.23 108.618 136.086 107.946 136.086 107.202C136.086 106.446 136.224 105.726 136.5 105.042C136.788 104.346 137.19 103.728 137.706 103.188C138.222 102.648 138.822 102.222 139.506 101.91C140.202 101.598 140.958 101.442 141.774 101.442C142.698 101.442 143.448 101.658 144.024 102.09C144.612 102.51 144.906 103.14 144.906 103.98C144.906 104.928 144.486 105.648 143.646 106.14C142.806 106.632 141.516 106.878 139.776 106.878C139.5 106.878 139.188 106.872 138.84 106.86C138.504 106.848 138.126 106.824 137.706 106.788C137.694 106.932 137.688 107.07 137.688 107.202C137.688 107.694 137.772 108.156 137.94 108.588C138.108 109.008 138.366 109.35 138.714 109.614C139.062 109.866 139.5 109.992 140.028 109.992C140.58 109.992 141.12 109.854 141.648 109.578C142.176 109.29 142.59 108.906 142.89 108.426L144.168 108.804C143.88 109.26 143.502 109.668 143.034 110.028C142.566 110.388 142.05 110.67 141.486 110.874C140.934 111.078 140.364 111.18 139.776 111.18ZM141.666 102.63C141.042 102.63 140.478 102.768 139.974 103.044C139.47 103.308 139.038 103.674 138.678 104.142C138.33 104.61 138.072 105.126 137.904 105.69C138.3 105.714 138.648 105.738 138.948 105.762C139.26 105.774 139.554 105.78 139.83 105.78C140.742 105.78 141.462 105.702 141.99 105.546C142.518 105.39 142.896 105.174 143.124 104.898C143.364 104.622 143.484 104.31 143.484 103.962C143.484 103.506 143.316 103.17 142.98 102.954C142.656 102.738 142.218 102.63 141.666 102.63ZM147.463 101.604H148.939L148.471 103.782C148.927 103.134 149.443 102.606 150.019 102.198C150.607 101.79 151.189 101.586 151.765 101.586C151.873 101.586 151.963 101.592 152.035 101.604C152.119 101.604 152.185 101.61 152.233 101.622L151.945 102.99C151.201 103.002 150.499 103.206 149.839 103.602C149.179 103.986 148.657 104.52 148.273 105.204L147.049 111H145.465L147.463 101.604ZM154.618 97.86H156.202L155.788 99.84H154.204L154.618 97.86ZM153.826 101.604H155.41L153.412 111H151.828L153.826 101.604ZM159.921 111.18C159.081 111.18 158.385 111 157.833 110.64C157.281 110.28 156.867 109.8 156.591 109.2C156.327 108.6 156.195 107.94 156.195 107.22C156.195 106.428 156.339 105.684 156.627 104.988C156.915 104.292 157.311 103.68 157.815 103.152C158.331 102.612 158.925 102.192 159.597 101.892C160.269 101.592 160.983 101.442 161.739 101.442C162.579 101.442 163.275 101.622 163.827 101.982C164.391 102.342 164.811 102.822 165.087 103.422C165.363 104.022 165.501 104.688 165.501 105.42C165.501 106.2 165.357 106.938 165.069 107.634C164.781 108.33 164.379 108.948 163.863 109.488C163.347 110.016 162.753 110.43 162.081 110.73C161.409 111.03 160.689 111.18 159.921 111.18ZM160.191 109.812C160.815 109.812 161.403 109.632 161.955 109.272C162.519 108.912 162.975 108.42 163.323 107.796C163.671 107.16 163.845 106.446 163.845 105.654C163.845 104.838 163.641 104.16 163.233 103.62C162.837 103.08 162.255 102.81 161.487 102.81C160.875 102.81 160.287 102.996 159.723 103.368C159.171 103.728 158.715 104.226 158.355 104.862C158.007 105.486 157.833 106.2 157.833 107.004C157.833 107.82 158.031 108.492 158.427 109.02C158.835 109.548 159.423 109.812 160.191 109.812ZM168.293 101.604H169.769L169.301 103.782C169.757 103.134 170.273 102.606 170.849 102.198C171.437 101.79 172.019 101.586 172.595 101.586C172.703 101.586 172.793 101.592 172.865 101.604C172.949 101.604 173.015 101.61 173.063 101.622L172.775 102.99C172.031 103.002 171.329 103.206 170.669 103.602C170.009 103.986 169.487 104.52 169.103 105.204L167.879 111H166.295L168.293 101.604ZM175.826 111.18C175.07 111.18 174.368 111.066 173.72 110.838C173.072 110.598 172.544 110.256 172.136 109.812L173.036 108.75C173.468 109.158 173.924 109.464 174.404 109.668C174.896 109.86 175.418 109.956 175.97 109.956C176.69 109.956 177.272 109.806 177.716 109.506C178.172 109.194 178.4 108.78 178.4 108.264C178.4 107.832 178.22 107.538 177.86 107.382C177.5 107.214 176.966 107.028 176.258 106.824C175.67 106.644 175.178 106.476 174.782 106.32C174.398 106.164 174.11 105.966 173.918 105.726C173.738 105.474 173.648 105.132 173.648 104.7C173.648 104.052 173.828 103.488 174.188 103.008C174.548 102.516 175.034 102.132 175.646 101.856C176.258 101.58 176.948 101.442 177.716 101.442C178.424 101.442 179.042 101.556 179.57 101.784C180.098 102.012 180.53 102.312 180.866 102.684L179.948 103.638C179.648 103.29 179.312 103.038 178.94 102.882C178.568 102.726 178.136 102.648 177.644 102.648C176.948 102.648 176.366 102.792 175.898 103.08C175.442 103.356 175.214 103.776 175.214 104.34C175.214 104.712 175.346 104.976 175.61 105.132C175.874 105.276 176.336 105.438 176.996 105.618C177.644 105.798 178.19 105.99 178.634 106.194C179.09 106.386 179.432 106.626 179.66 106.914C179.888 107.202 180.002 107.586 180.002 108.066C180.002 108.654 179.828 109.182 179.48 109.65C179.144 110.118 178.664 110.49 178.04 110.766C177.416 111.042 176.678 111.18 175.826 111.18ZM186.423 109.686C186.423 109.518 186.441 109.344 186.477 109.164L187.827 102.846H186.603L186.873 101.604H188.079L188.745 98.472H190.329L189.663 101.604H191.661L191.391 102.846H189.411L188.169 108.678C188.157 108.726 188.145 108.774 188.133 108.822C188.133 108.858 188.133 108.9 188.133 108.948C188.133 109.2 188.211 109.386 188.367 109.506C188.523 109.614 188.715 109.668 188.943 109.668C189.243 109.668 189.525 109.614 189.789 109.506C190.053 109.398 190.239 109.32 190.347 109.272L190.437 110.532C190.221 110.688 189.897 110.826 189.465 110.946C189.045 111.066 188.595 111.126 188.115 111.126C187.635 111.126 187.233 111.012 186.909 110.784C186.585 110.544 186.423 110.178 186.423 109.686ZM194.521 97.86H196.105L194.881 103.62C195.373 102.948 195.961 102.42 196.645 102.036C197.341 101.64 198.043 101.442 198.751 101.442C199.543 101.442 200.101 101.658 200.425 102.09C200.749 102.522 200.911 103.086 200.911 103.782C200.911 104.022 200.893 104.28 200.857 104.556C200.833 104.82 200.791 105.096 200.731 105.384L199.543 111H197.959L199.075 105.744C199.123 105.504 199.159 105.288 199.183 105.096C199.207 104.892 199.219 104.7 199.219 104.52C199.219 103.416 198.757 102.864 197.833 102.864C197.461 102.864 197.059 102.972 196.627 103.188C196.207 103.404 195.805 103.698 195.421 104.07C195.049 104.43 194.749 104.85 194.521 105.33L193.315 111H191.731L194.521 97.86ZM205.598 111.18C204.902 111.18 204.302 111.006 203.798 110.658C203.294 110.298 202.91 109.824 202.646 109.236C202.382 108.636 202.25 107.982 202.25 107.274C202.25 106.518 202.388 105.792 202.664 105.096C202.952 104.4 203.336 103.782 203.816 103.242C204.308 102.69 204.866 102.252 205.49 101.928C206.114 101.604 206.768 101.442 207.452 101.442C208.172 101.442 208.772 101.64 209.252 102.036C209.732 102.432 210.068 102.912 210.26 103.476L210.674 101.604H212.258L210.674 109.056C210.662 109.104 210.65 109.146 210.638 109.182C210.638 109.218 210.638 109.254 210.638 109.29C210.638 109.506 210.77 109.62 211.034 109.632L210.746 111C210.614 111.012 210.494 111.024 210.386 111.036C210.29 111.06 210.2 111.072 210.116 111.072C209.78 111.072 209.522 110.994 209.342 110.838C209.174 110.682 209.09 110.49 209.09 110.262C209.09 110.058 209.144 109.716 209.252 109.236C208.784 109.836 208.214 110.31 207.542 110.658C206.882 111.006 206.234 111.18 205.598 111.18ZM206.282 109.812C206.63 109.812 207.014 109.722 207.434 109.542C207.854 109.35 208.244 109.092 208.604 108.768C208.964 108.444 209.222 108.09 209.378 107.706L209.936 105.006C209.888 104.598 209.75 104.232 209.522 103.908C209.294 103.572 209.012 103.308 208.676 103.116C208.352 102.912 208.004 102.81 207.632 102.81C207.128 102.81 206.654 102.936 206.21 103.188C205.766 103.428 205.37 103.752 205.022 104.16C204.686 104.568 204.416 105.024 204.212 105.528C204.02 106.02 203.924 106.518 203.924 107.022C203.924 107.538 204.02 108.006 204.212 108.426C204.404 108.846 204.674 109.182 205.022 109.434C205.382 109.686 205.802 109.812 206.282 109.812ZM213.563 109.686C213.563 109.518 213.581 109.344 213.617 109.164L214.967 102.846H213.743L214.013 101.604H215.219L215.885 98.472H217.469L216.803 101.604H218.801L218.531 102.846H216.551L215.309 108.678C215.297 108.726 215.285 108.774 215.273 108.822C215.273 108.858 215.273 108.9 215.273 108.948C215.273 109.2 215.351 109.386 215.507 109.506C215.663 109.614 215.855 109.668 216.083 109.668C216.383 109.668 216.665 109.614 216.929 109.506C217.193 109.398 217.379 109.32 217.487 109.272L217.577 110.532C217.361 110.688 217.037 110.826 216.605 110.946C216.185 111.066 215.735 111.126 215.255 111.126C214.775 111.126 214.373 111.012 214.049 110.784C213.725 110.544 213.563 110.178 213.563 109.686ZM225.317 101.604H226.793L226.325 103.782C226.781 103.134 227.297 102.606 227.873 102.198C228.461 101.79 229.043 101.586 229.619 101.586C229.727 101.586 229.817 101.592 229.889 101.604C229.973 101.604 230.039 101.61 230.087 101.622L229.799 102.99C229.055 103.002 228.353 103.206 227.693 103.602C227.033 103.986 226.511 104.52 226.127 105.204L224.903 111H223.319L225.317 101.604ZM233.52 111.18C232.74 111.18 232.074 111.006 231.522 110.658C230.97 110.298 230.55 109.818 230.262 109.218C229.974 108.618 229.83 107.946 229.83 107.202C229.83 106.446 229.968 105.726 230.244 105.042C230.532 104.346 230.934 103.728 231.45 103.188C231.966 102.648 232.566 102.222 233.25 101.91C233.946 101.598 234.702 101.442 235.518 101.442C236.442 101.442 237.192 101.658 237.768 102.09C238.356 102.51 238.65 103.14 238.65 103.98C238.65 104.928 238.23 105.648 237.39 106.14C236.55 106.632 235.26 106.878 233.52 106.878C233.244 106.878 232.932 106.872 232.584 106.86C232.248 106.848 231.87 106.824 231.45 106.788C231.438 106.932 231.432 107.07 231.432 107.202C231.432 107.694 231.516 108.156 231.684 108.588C231.852 109.008 232.11 109.35 232.458 109.614C232.806 109.866 233.244 109.992 233.772 109.992C234.324 109.992 234.864 109.854 235.392 109.578C235.92 109.29 236.334 108.906 236.634 108.426L237.912 108.804C237.624 109.26 237.246 109.668 236.778 110.028C236.31 110.388 235.794 110.67 235.23 110.874C234.678 111.078 234.108 111.18 233.52 111.18ZM235.41 102.63C234.786 102.63 234.222 102.768 233.718 103.044C233.214 103.308 232.782 103.674 232.422 104.142C232.074 104.61 231.816 105.126 231.648 105.69C232.044 105.714 232.392 105.738 232.692 105.762C233.004 105.774 233.298 105.78 233.574 105.78C234.486 105.78 235.206 105.702 235.734 105.546C236.262 105.39 236.64 105.174 236.868 104.898C237.108 104.622 237.228 104.31 237.228 103.962C237.228 103.506 237.06 103.17 236.724 102.954C236.4 102.738 235.962 102.63 235.41 102.63ZM246.555 111.126C246.039 111.126 245.643 110.994 245.367 110.73C245.103 110.454 244.971 110.112 244.971 109.704C244.971 109.608 244.977 109.506 244.989 109.398C245.013 109.278 245.043 109.128 245.079 108.948L246.771 101.046C246.795 100.95 246.813 100.848 246.825 100.74C246.837 100.632 246.843 100.53 246.843 100.434C246.843 100.074 246.747 99.756 246.555 99.48C246.363 99.192 246.003 99.048 245.475 99.048C244.863 99.048 244.371 99.27 243.999 99.714C243.627 100.158 243.363 100.734 243.207 101.442L243.171 101.604H244.899L244.647 102.846H242.901L241.173 111H239.589L241.317 102.846H240.111L240.381 101.604H241.587L241.659 101.28C241.899 100.188 242.367 99.318 243.063 98.67C243.771 98.01 244.665 97.68 245.745 97.68C246.693 97.68 247.389 97.89 247.833 98.31C248.289 98.718 248.517 99.258 248.517 99.93C248.517 100.05 248.505 100.176 248.481 100.308C248.469 100.44 248.451 100.572 248.427 100.704L246.753 108.606C246.741 108.654 246.729 108.702 246.717 108.75C246.717 108.798 246.717 108.846 246.717 108.894C246.717 109.098 246.771 109.284 246.879 109.452C246.987 109.62 247.167 109.704 247.419 109.704C247.563 109.704 247.719 109.686 247.887 109.65C248.055 109.614 248.199 109.578 248.319 109.542C248.451 109.506 248.517 109.488 248.517 109.488L248.445 110.784C248.433 110.796 248.331 110.832 248.139 110.892C247.947 110.94 247.707 110.988 247.419 111.036C247.143 111.096 246.855 111.126 246.555 111.126ZM253.612 111.18C252.832 111.18 252.166 111.006 251.614 110.658C251.062 110.298 250.642 109.818 250.354 109.218C250.066 108.618 249.922 107.946 249.922 107.202C249.922 106.446 250.06 105.726 250.336 105.042C250.624 104.346 251.026 103.728 251.542 103.188C252.058 102.648 252.658 102.222 253.342 101.91C254.038 101.598 254.794 101.442 255.61 101.442C256.534 101.442 257.284 101.658 257.86 102.09C258.448 102.51 258.742 103.14 258.742 103.98C258.742 104.928 258.322 105.648 257.482 106.14C256.642 106.632 255.352 106.878 253.612 106.878C253.336 106.878 253.024 106.872 252.676 106.86C252.34 106.848 251.962 106.824 251.542 106.788C251.53 106.932 251.524 107.07 251.524 107.202C251.524 107.694 251.608 108.156 251.776 108.588C251.944 109.008 252.202 109.35 252.55 109.614C252.898 109.866 253.336 109.992 253.864 109.992C254.416 109.992 254.956 109.854 255.484 109.578C256.012 109.29 256.426 108.906 256.726 108.426L258.004 108.804C257.716 109.26 257.338 109.668 256.87 110.028C256.402 110.388 255.886 110.67 255.322 110.874C254.77 111.078 254.2 111.18 253.612 111.18ZM255.502 102.63C254.878 102.63 254.314 102.768 253.81 103.044C253.306 103.308 252.874 103.674 252.514 104.142C252.166 104.61 251.908 105.126 251.74 105.69C252.136 105.714 252.484 105.738 252.784 105.762C253.096 105.774 253.39 105.78 253.666 105.78C254.578 105.78 255.298 105.702 255.826 105.546C256.354 105.39 256.732 105.174 256.96 104.898C257.2 104.622 257.32 104.31 257.32 103.962C257.32 103.506 257.152 103.17 256.816 102.954C256.492 102.738 256.054 102.63 255.502 102.63ZM263.297 111.18C262.505 111.18 261.833 111 261.281 110.64C260.741 110.28 260.327 109.8 260.039 109.2C259.751 108.6 259.607 107.934 259.607 107.202C259.607 106.446 259.751 105.726 260.039 105.042C260.327 104.346 260.723 103.728 261.227 103.188C261.743 102.648 262.343 102.222 263.027 101.91C263.723 101.598 264.473 101.442 265.277 101.442C266.201 101.442 266.939 101.652 267.491 102.072C268.055 102.48 268.427 103.032 268.607 103.728L266.969 104.214C266.825 103.758 266.585 103.41 266.249 103.17C265.913 102.93 265.499 102.81 265.007 102.81C264.371 102.81 263.765 103.002 263.189 103.386C262.613 103.758 262.145 104.262 261.785 104.898C261.425 105.534 261.245 106.236 261.245 107.004C261.245 107.808 261.455 108.48 261.875 109.02C262.295 109.548 262.841 109.812 263.513 109.812C263.861 109.812 264.209 109.746 264.557 109.614C264.905 109.482 265.217 109.308 265.493 109.092C265.781 108.864 265.997 108.618 266.141 108.354L267.599 108.822C267.323 109.278 266.957 109.686 266.501 110.046C266.057 110.394 265.559 110.67 265.007 110.874C264.455 111.078 263.885 111.18 263.297 111.18ZM269.637 109.686C269.637 109.518 269.655 109.344 269.691 109.164L271.041 102.846H269.817L270.087 101.604H271.293L271.959 98.472H273.543L272.877 101.604H274.875L274.605 102.846H272.625L271.383 108.678C271.371 108.726 271.359 108.774 271.347 108.822C271.347 108.858 271.347 108.9 271.347 108.948C271.347 109.2 271.425 109.386 271.581 109.506C271.737 109.614 271.929 109.668 272.157 109.668C272.457 109.668 272.739 109.614 273.003 109.506C273.267 109.398 273.453 109.32 273.561 109.272L273.651 110.532C273.435 110.688 273.111 110.826 272.679 110.946C272.259 111.066 271.809 111.126 271.329 111.126C270.849 111.126 270.447 111.012 270.123 110.784C269.799 110.544 269.637 110.178 269.637 109.686ZM278.163 113.754C278.667 113.682 279.075 113.586 279.387 113.466C279.711 113.358 279.993 113.184 280.233 112.944C280.473 112.716 280.731 112.398 281.007 111.99L281.529 111.198L279.711 101.604H281.349L282.645 109.578L283.257 108.57C283.761 107.742 284.187 107.016 284.535 106.392C284.883 105.768 285.177 105.198 285.417 104.682C285.669 104.154 285.879 103.644 286.047 103.152C286.215 102.66 286.371 102.144 286.515 101.604H288.081C287.925 102.18 287.751 102.72 287.559 103.224C287.367 103.728 287.139 104.256 286.875 104.808C286.611 105.36 286.275 105.984 285.867 106.68C285.471 107.364 284.973 108.186 284.373 109.146L282.933 111.468C282.393 112.344 281.889 113.04 281.421 113.556C280.953 114.072 280.479 114.444 279.999 114.672C279.519 114.9 278.979 115.02 278.379 115.032L278.163 113.754ZM291.827 111.18C290.987 111.18 290.291 111 289.739 110.64C289.187 110.28 288.773 109.8 288.497 109.2C288.233 108.6 288.101 107.94 288.101 107.22C288.101 106.428 288.245 105.684 288.533 104.988C288.821 104.292 289.217 103.68 289.721 103.152C290.237 102.612 290.831 102.192 291.503 101.892C292.175 101.592 292.889 101.442 293.645 101.442C294.485 101.442 295.181 101.622 295.733 101.982C296.297 102.342 296.717 102.822 296.993 103.422C297.269 104.022 297.407 104.688 297.407 105.42C297.407 106.2 297.263 106.938 296.975 107.634C296.687 108.33 296.285 108.948 295.769 109.488C295.253 110.016 294.659 110.43 293.987 110.73C293.315 111.03 292.595 111.18 291.827 111.18ZM292.097 109.812C292.721 109.812 293.309 109.632 293.861 109.272C294.425 108.912 294.881 108.42 295.229 107.796C295.577 107.16 295.751 106.446 295.751 105.654C295.751 104.838 295.547 104.16 295.139 103.62C294.743 103.08 294.161 102.81 293.393 102.81C292.781 102.81 292.193 102.996 291.629 103.368C291.077 103.728 290.621 104.226 290.261 104.862C289.913 105.486 289.739 106.2 289.739 107.004C289.739 107.82 289.937 108.492 290.333 109.02C290.741 109.548 291.329 109.812 292.097 109.812ZM300.901 111.18C299.437 111.18 298.705 110.388 298.705 108.804C298.705 108.576 298.723 108.336 298.759 108.084C298.795 107.82 298.843 107.538 298.903 107.238L300.109 101.604H301.675L300.541 106.932C300.433 107.412 300.379 107.826 300.379 108.174C300.379 109.266 300.847 109.812 301.783 109.812C302.383 109.812 302.989 109.608 303.601 109.2C304.225 108.78 304.747 108.21 305.167 107.49L306.409 101.604H307.993L306.409 109.056C306.397 109.104 306.385 109.146 306.373 109.182C306.373 109.218 306.373 109.254 306.373 109.29C306.373 109.506 306.505 109.62 306.769 109.632L306.481 111C306.349 111.012 306.229 111.024 306.121 111.036C306.025 111.06 305.935 111.072 305.851 111.072C305.527 111.072 305.281 111 305.113 110.856C304.945 110.712 304.861 110.52 304.861 110.28C304.861 110.172 304.873 110.028 304.897 109.848C304.921 109.656 304.975 109.368 305.059 108.984C304.519 109.68 303.883 110.22 303.151 110.604C302.419 110.988 301.669 111.18 300.901 111.18ZM310.588 101.604H312.064L311.596 103.782C312.052 103.134 312.568 102.606 313.144 102.198C313.732 101.79 314.314 101.586 314.89 101.586C314.998 101.586 315.088 101.592 315.16 101.604C315.244 101.604 315.31 101.61 315.358 101.622L315.07 102.99C314.326 103.002 313.624 103.206 312.964 103.602C312.304 103.986 311.782 104.52 311.398 105.204L310.174 111H308.59L310.588 101.604ZM322.217 111.18C321.461 111.18 320.759 111.066 320.111 110.838C319.463 110.598 318.935 110.256 318.527 109.812L319.427 108.75C319.859 109.158 320.315 109.464 320.795 109.668C321.287 109.86 321.809 109.956 322.361 109.956C323.081 109.956 323.663 109.806 324.107 109.506C324.563 109.194 324.791 108.78 324.791 108.264C324.791 107.832 324.611 107.538 324.251 107.382C323.891 107.214 323.357 107.028 322.649 106.824C322.061 106.644 321.569 106.476 321.173 106.32C320.789 106.164 320.501 105.966 320.309 105.726C320.129 105.474 320.039 105.132 320.039 104.7C320.039 104.052 320.219 103.488 320.579 103.008C320.939 102.516 321.425 102.132 322.037 101.856C322.649 101.58 323.339 101.442 324.107 101.442C324.815 101.442 325.433 101.556 325.961 101.784C326.489 102.012 326.921 102.312 327.257 102.684L326.339 103.638C326.039 103.29 325.703 103.038 325.331 102.882C324.959 102.726 324.527 102.648 324.035 102.648C323.339 102.648 322.757 102.792 322.289 103.08C321.833 103.356 321.605 103.776 321.605 104.34C321.605 104.712 321.737 104.976 322.001 105.132C322.265 105.276 322.727 105.438 323.387 105.618C324.035 105.798 324.581 105.99 325.025 106.194C325.481 106.386 325.823 106.626 326.051 106.914C326.279 107.202 326.393 107.586 326.393 108.066C326.393 108.654 326.219 109.182 325.871 109.65C325.535 110.118 325.055 110.49 324.431 110.766C323.807 111.042 323.069 111.18 322.217 111.18ZM328.366 109.686C328.366 109.518 328.384 109.344 328.42 109.164L329.77 102.846H328.546L328.816 101.604H330.022L330.688 98.472H332.272L331.606 101.604H333.604L333.334 102.846H331.354L330.112 108.678C330.1 108.726 330.088 108.774 330.076 108.822C330.076 108.858 330.076 108.9 330.076 108.948C330.076 109.2 330.154 109.386 330.31 109.506C330.466 109.614 330.658 109.668 330.886 109.668C331.186 109.668 331.468 109.614 331.732 109.506C331.996 109.398 332.182 109.32 332.29 109.272L332.38 110.532C332.164 110.688 331.84 110.826 331.408 110.946C330.988 111.066 330.538 111.126 330.058 111.126C329.578 111.126 329.176 111.012 328.852 110.784C328.528 110.544 328.366 110.178 328.366 109.686ZM332.954 113.754C333.458 113.682 333.866 113.586 334.178 113.466C334.502 113.358 334.784 113.184 335.024 112.944C335.264 112.716 335.522 112.398 335.798 111.99L336.32 111.198L334.502 101.604H336.14L337.436 109.578L338.048 108.57C338.552 107.742 338.978 107.016 339.326 106.392C339.674 105.768 339.968 105.198 340.208 104.682C340.46 104.154 340.67 103.644 340.838 103.152C341.006 102.66 341.162 102.144 341.306 101.604H342.872C342.716 102.18 342.542 102.72 342.35 103.224C342.158 103.728 341.93 104.256 341.666 104.808C341.402 105.36 341.066 105.984 340.658 106.68C340.262 107.364 339.764 108.186 339.164 109.146L337.724 111.468C337.184 112.344 336.68 113.04 336.212 113.556C335.744 114.072 335.27 114.444 334.79 114.672C334.31 114.9 333.77 115.02 333.17 115.032L332.954 113.754ZM344.618 111.126C344.126 111.126 343.742 111.006 343.466 110.766C343.19 110.514 343.052 110.166 343.052 109.722C343.052 109.626 343.058 109.53 343.07 109.434C343.094 109.338 343.112 109.242 343.124 109.146L345.518 97.86H347.084L344.816 108.57C344.804 108.63 344.792 108.69 344.78 108.75C344.78 108.798 344.78 108.852 344.78 108.912C344.78 109.428 345.05 109.686 345.59 109.686C345.878 109.686 346.208 109.614 346.58 109.47L346.526 110.748C346.262 110.856 345.944 110.946 345.572 111.018C345.212 111.09 344.894 111.126 344.618 111.126ZM351.68 111.18C350.9 111.18 350.234 111.006 349.682 110.658C349.13 110.298 348.71 109.818 348.422 109.218C348.134 108.618 347.99 107.946 347.99 107.202C347.99 106.446 348.128 105.726 348.404 105.042C348.692 104.346 349.094 103.728 349.61 103.188C350.126 102.648 350.726 102.222 351.41 101.91C352.106 101.598 352.862 101.442 353.678 101.442C354.602 101.442 355.352 101.658 355.928 102.09C356.516 102.51 356.81 103.14 356.81 103.98C356.81 104.928 356.39 105.648 355.55 106.14C354.71 106.632 353.42 106.878 351.68 106.878C351.404 106.878 351.092 106.872 350.744 106.86C350.408 106.848 350.03 106.824 349.61 106.788C349.598 106.932 349.592 107.07 349.592 107.202C349.592 107.694 349.676 108.156 349.844 108.588C350.012 109.008 350.27 109.35 350.618 109.614C350.966 109.866 351.404 109.992 351.932 109.992C352.484 109.992 353.024 109.854 353.552 109.578C354.08 109.29 354.494 108.906 354.794 108.426L356.072 108.804C355.784 109.26 355.406 109.668 354.938 110.028C354.47 110.388 353.954 110.67 353.39 110.874C352.838 111.078 352.268 111.18 351.68 111.18ZM353.57 102.63C352.946 102.63 352.382 102.768 351.878 103.044C351.374 103.308 350.942 103.674 350.582 104.142C350.234 104.61 349.976 105.126 349.808 105.69C350.204 105.714 350.552 105.738 350.852 105.762C351.164 105.774 351.458 105.78 351.734 105.78C352.646 105.78 353.366 105.702 353.894 105.546C354.422 105.39 354.8 105.174 355.028 104.898C355.268 104.622 355.388 104.31 355.388 103.962C355.388 103.506 355.22 103.17 354.884 102.954C354.56 102.738 354.122 102.63 353.57 102.63Z" fill="#FB1010" fill-opacity="0.6"/>
</g>
<defs>
<filter id="filter0_d" x="118.792" y="61.26" width="234.352" height="34.028" filterUnits="userSpaceOnUse" color-interpolation-filters="sRGB">
<feFlood flood-opacity="0" result="BackgroundImageFix"/>
<feColorMatrix in="SourceAlpha" type="matrix" values="0 0 0 0 0 0 0 0 0 0 0 0 0 0 0 0 0 0 127 0"/>
<feOffset dy="4"/>
<feGaussianBlur stdDeviation="2"/>
<feColorMatrix type="matrix" values="0 0 0 0 0 0 0 0 0 0 0 0 0 0 0 0 0 0 0.25 0"/>
<feBlend mode="normal" in2="BackgroundImageFix" result="effect1_dropShadow"/>
<feBlend mode="normal" in="SourceGraphic" in2="effect1_dropShadow" result="shape"/>
</filter>
<filter id="filter1_d" x="111.36" y="97.68" width="249.45" height="25.352" filterUnits="userSpaceOnUse" color-interpolation-filters="sRGB">
<feFlood flood-opacity="0" result="BackgroundImageFix"/>
<feColorMatrix in="SourceAlpha" type="matrix" values="0 0 0 0 0 0 0 0 0 0 0 0 0 0 0 0 0 0 127 0"/>
<feOffset dy="4"/>
<feGaussianBlur stdDeviation="2"/>
<feColorMatrix type="matrix" values="0 0 0 0 0 0 0 0 0 0 0 0 0 0 0 0 0 0 0.25 0"/>
<feBlend mode="normal" in2="BackgroundImageFix" result="effect1_dropShadow"/>
<feBlend mode="normal" in="SourceGraphic" in2="effect1_dropShadow" result="shape"/>
</filter>
</defs>
</svg>
