<svg width="348" height="107" viewBox="0 0 348 107" fill="none" xmlns="http://www.w3.org/2000/svg">
<g filter="url(#filter0_d)">
<path d="M108.2 67.82H109.13C111.55 67.82 112.76 66.67 112.76 64.37C112.76 61.99 111.55 60.8 109.13 60.8H108.2V67.82ZM108.2 76.4H109.88C111.08 76.4 112.03 76.09 112.73 75.47C113.43 74.85 113.78 73.95 113.78 72.77C113.78 71.11 113.37 69.97 112.55 69.35C111.73 68.73 110.6 68.42 109.16 68.42H108.2V76.4ZM102.2 77V76.4H103.7V60.8H102.2V60.2H109.76C112.24 60.2 114.06 60.58 115.22 61.34C116.4 62.1 116.99 63.14 116.99 64.46C116.99 65.52 116.64 66.39 115.94 67.07C115.26 67.73 114.34 68.06 113.18 68.06V68.24C114.62 68.24 115.83 68.63 116.81 69.41C117.79 70.17 118.28 71.26 118.28 72.68C118.28 74.1 117.71 75.18 116.57 75.92C115.43 76.64 113.8 77 111.68 77H102.2Z" fill="#F00000"/>
<path d="M125.771 60.8V68.54C127.771 68.54 129.111 68.25 129.791 67.67C130.471 67.09 130.811 66.12 130.811 64.76C130.811 63.4 130.461 62.4 129.761 61.76C129.061 61.12 127.731 60.8 125.771 60.8ZM137.561 77.3H136.241C133.741 77.3 132.001 76.76 131.021 75.68C130.241 74.84 129.711 73.73 129.431 72.35C129.311 71.77 129.181 71.24 129.041 70.76C128.721 69.68 128.071 69.14 127.091 69.14H125.771V76.4H127.271V77H119.771V76.4H121.271V60.8H119.771V60.2H127.661C132.761 60.2 135.311 61.69 135.311 64.67C135.311 65.85 134.881 66.81 134.021 67.55C133.161 68.29 132.061 68.66 130.721 68.66V68.87C132.721 68.87 134.111 70.19 134.891 72.83C135.291 74.23 135.691 75.23 136.091 75.83C136.511 76.41 137.001 76.7 137.561 76.7V77.3ZM156.845 76.4V77H148.955V76.4H150.725L148.715 72.23H142.655L140.915 76.4H143.285V77H138.155V76.4H140.165L147.035 59.9H147.785L155.405 76.4H156.845ZM142.925 71.6H148.415L145.475 65.48L142.925 71.6ZM160.133 76.4H162.533V77H157.733V76.4H159.533V62.12C158.893 61.24 158.293 60.8 157.733 60.8V60.2H163.343L171.773 70.19V60.8H169.373V60.2H174.473V60.8H172.373V77.3H171.773L160.133 62.87V76.4ZM183.763 77H176.263V76.4H177.763V60.8H176.263V60.2H183.763C185.243 60.2 186.573 60.45 187.753 60.95C188.953 61.43 189.923 62.07 190.663 62.87C192.163 64.53 192.913 66.41 192.913 68.51C192.913 71.35 192.163 73.48 190.663 74.9C189.163 76.3 186.863 77 183.763 77ZM182.263 76.4C184.423 76.4 185.983 75.82 186.943 74.66C187.903 73.48 188.383 71.57 188.383 68.93C188.383 66.27 187.863 64.25 186.823 62.87C185.783 61.49 184.263 60.8 182.263 60.8V76.4ZM207.59 70.7H208.19V77H194.42V76.4L202.91 60.8H200.99C199.13 60.8 197.82 61.13 197.06 61.79C196.3 62.45 195.92 63.82 195.92 65.9H195.32V60.2H207.98V60.8L199.37 76.4H202.52C203.46 76.4 204.22 76.34 204.8 76.22C205.38 76.08 205.9 75.82 206.36 75.44C207.18 74.72 207.59 73.14 207.59 70.7ZM228.746 76.4H231.146V77H226.346V76.4H228.146V62.12C227.506 61.24 226.906 60.8 226.346 60.8V60.2H231.956L240.386 70.19V60.8H237.986V60.2H243.086V60.8H240.986V77.3H240.386L228.746 62.87V76.4ZM259.546 65.3C259.546 63.52 259.246 62.33 258.646 61.73C258.066 61.11 256.966 60.8 255.346 60.8H254.446V76.4H256.546V77H247.846V76.4H249.946V60.8H249.046C247.446 60.8 246.346 61.11 245.746 61.73C245.166 62.33 244.876 63.52 244.876 65.3H244.276V60.2H260.146V65.3H259.546ZM270.956 76.4C273.956 76.4 275.456 74.7 275.456 71.3H276.056V77H261.956V76.4H263.456V60.8H261.956V60.2H275.756V65.3H275.156C275.156 63.52 274.796 62.33 274.076 61.73C273.376 61.11 272.236 60.8 270.656 60.8H267.956V68H269.156C270.596 68 271.506 67.82 271.886 67.46C272.266 67.1 272.456 66.38 272.456 65.3H273.056V71.3H272.456C272.456 70.18 272.266 69.45 271.886 69.11C271.506 68.77 270.596 68.6 269.156 68.6H267.956V76.4H270.956ZM284.004 60.8V68.54C286.004 68.54 287.344 68.25 288.024 67.67C288.704 67.09 289.044 66.12 289.044 64.76C289.044 63.4 288.694 62.4 287.994 61.76C287.294 61.12 285.964 60.8 284.004 60.8ZM295.794 77.3H294.474C291.974 77.3 290.234 76.76 289.254 75.68C288.474 74.84 287.944 73.73 287.664 72.35C287.544 71.77 287.414 71.24 287.274 70.76C286.954 69.68 286.304 69.14 285.324 69.14H284.004V76.4H285.504V77H278.004V76.4H279.504V60.8H278.004V60.2H285.894C290.994 60.2 293.544 61.69 293.544 64.67C293.544 65.85 293.114 66.81 292.254 67.55C291.394 68.29 290.294 68.66 288.954 68.66V68.87C290.954 68.87 292.344 70.19 293.124 72.83C293.524 74.23 293.924 75.23 294.324 75.83C294.744 76.41 295.234 76.7 295.794 76.7V77.3ZM304.788 77H297.288V76.4H298.788V60.8H297.288V60.2H304.788V60.8H303.288V76.4H304.788V77ZM319.22 68.57C319.22 66.01 318.87 64.02 318.17 62.6C317.49 61.16 316.54 60.44 315.32 60.44C314.12 60.44 313.17 61.16 312.47 62.6C311.77 64.04 311.42 66.05 311.42 68.63C311.42 71.21 311.75 73.2 312.41 74.6C313.09 76 314.06 76.7 315.32 76.7C317.92 76.7 319.22 73.99 319.22 68.57ZM324.05 68.75C324.05 71.49 323.24 73.6 321.62 75.08C320 76.56 317.89 77.3 315.29 77.3C312.69 77.3 310.59 76.57 308.99 75.11C307.39 73.63 306.59 71.52 306.59 68.78C306.59 66.02 307.39 63.84 308.99 62.24C310.59 60.64 312.71 59.84 315.35 59.84C318.01 59.84 320.12 60.64 321.68 62.24C323.26 63.82 324.05 65.99 324.05 68.75ZM331.552 60.8V68.54C333.552 68.54 334.892 68.25 335.572 67.67C336.252 67.09 336.592 66.12 336.592 64.76C336.592 63.4 336.242 62.4 335.542 61.76C334.842 61.12 333.512 60.8 331.552 60.8ZM343.342 77.3H342.022C339.522 77.3 337.782 76.76 336.802 75.68C336.022 74.84 335.492 73.73 335.212 72.35C335.092 71.77 334.962 71.24 334.822 70.76C334.502 69.68 333.852 69.14 332.872 69.14H331.552V76.4H333.052V77H325.552V76.4H327.052V60.8H325.552V60.2H333.442C338.542 60.2 341.092 61.69 341.092 64.67C341.092 65.85 340.662 66.81 339.802 67.55C338.942 68.29 337.842 68.66 336.502 68.66V68.87C338.502 68.87 339.892 70.19 340.672 72.83C341.072 74.23 341.472 75.23 341.872 75.83C342.292 76.41 342.782 76.7 343.342 76.7V77.3Z" fill="black"/>
<path d="M224.544 77H217.044V76.4H218.544V60.8H217.044V60.2H224.544V60.8H223.044V76.4H224.544V77Z" fill="#FF0000"/>
</g>
<path d="M8.22281 93.827H45.6384H83.054" stroke="black" stroke-width="4"/>
<path d="M34.8346 93.9302L44.3507 40.1567" stroke="black" stroke-width="3"/>
<path d="M49.9739 40.384L59.4899 94.1572" stroke="black" stroke-width="3"/>
<path d="M69.8612 91.0082C73.0862 91.0082 75.7006 88.29 75.7006 84.937C75.7006 81.584 73.0862 78.8658 69.8612 78.8658C66.6362 78.8658 64.0218 81.584 64.0218 84.937C64.0218 88.29 66.6362 91.0082 69.8612 91.0082Z" fill="#101010"/>
<path d="M79.8098 91.4419C81.6015 91.4419 83.054 89.9857 83.054 88.1894C83.054 86.3932 81.6015 84.937 79.8098 84.937C78.0181 84.937 76.5657 86.3932 76.5657 88.1894C76.5657 89.9857 78.0181 91.4419 79.8098 91.4419Z" fill="#101010"/>
<path d="M65.1031 94.0438V84.937" stroke="black" stroke-width="3"/>
<path d="M78.0796 93.1765V88.4063" stroke="black" stroke-width="3"/>
<path d="M71.4439 80.8242L78.6169 75.2365" stroke="black" stroke-width="6"/>
<path d="M75.0518 94.0438V84.937" stroke="black" stroke-width="3"/>
<path d="M81.9726 93.1765V88.4063" stroke="black" stroke-width="3"/>
<path d="M73.6278 41.1377L82.5055 43.9066C84.0947 44.4022 84.8144 46.2474 83.9822 47.692L79.7687 55.0073C79.1623 56.0602 77.9088 56.5516 76.7504 56.1903L74.1676 55.385C72.9803 55.0147 72.222 53.8525 72.3592 52.6135L73.6278 41.1377Z" fill="#1E1B1B"/>
<path d="M74.9246 54.6578L71.4642 61.1626" stroke="black" stroke-width="5"/>
<path fill-rule="evenodd" clip-rule="evenodd" d="M21.1614 1.10839C17.561 0.0911145 13.7341 1.72748 10.5157 4.69208C7.26402 7.68727 4.40447 12.2219 2.61255 17.6017C0.752582 23.1859 1.11497 29.2263 2.20141 33.8398C2.74573 36.1514 3.48465 38.1606 4.26095 39.6229C4.64635 40.3488 5.06619 40.988 5.51063 41.4655C5.74975 41.7222 6.08515 42.0297 6.50386 42.2292L6.4359 42.4386H8.65895L9.0065 42.1745L26.3085 29.0304L26.9426 28.5487L26.802 27.7637L25.7895 22.1074L25.8541 21.914L25.7961 21.5875L22.3563 2.21491L22.2204 1.44941L21.4836 1.20687C21.4297 1.18913 21.3757 1.172 21.3216 1.15548L21.1236 1.80696L20.9681 1.79625L21.1614 1.10839ZM24.107 27.4383L8.29133 39.4533L7.69839 39.0748L7.24494 39.4989C7.04294 39.2434 6.80668 38.88 6.55191 38.4004C5.90339 37.1788 5.23302 35.3897 4.72729 33.242C3.71347 28.9369 3.41233 23.4153 5.07423 18.4259C6.75166 13.3897 9.39671 9.25624 12.2716 6.60807C14.9734 4.11931 17.6867 3.09488 19.9477 3.49597L23.183 21.717L23.1178 21.9122L23.1764 22.2396L24.107 27.4383Z" fill="#111010"/>
<path d="M5.20258 16.7267L24.6685 21.3925L23.0685 25.8849L5.20258 16.7267Z" fill="#111010"/>
<path d="M2.17474 21.0633L24.0622 26.5959L22.4622 31.0884L2.17474 21.0633Z" fill="#111010"/>
<path fill-rule="evenodd" clip-rule="evenodd" d="M82.8571 46.9053L18.2656 26.3861L19.5877 23.1669L83.9026 43.5978C84.8136 43.8875 85.3179 44.8623 85.0294 45.7756C84.7405 46.6889 83.7681 47.1945 82.8571 46.9053Z" fill="#111010"/>
<path d="M4.54614 14.6847L2.16711 22.4905V41.5713V106.62" stroke="black" stroke-width="2"/>
<path d="M54.5057 38.1021H38.9339V40.2703H54.5057V38.1021Z" fill="#272727"/>
<path d="M50.6127 33.7656H43.6919V38.5358H50.6127V33.7656Z" fill="#110F0F"/>
<path d="M39.3664 63.9046H54.5057" stroke="black" stroke-width="3"/>
<path d="M2.16711 43.3059V49.3771" stroke="black" stroke-width="4"/>
<path d="M50.3631 47.7583L39.9819 64.2373" stroke="black"/>
<path d="M43.509 47.7583L53.8902 64.2373" stroke="black"/>
<path d="M46.0709 64.1215V94.0438" stroke="black"/>
<path d="M49.0988 64.1215V94.0438" stroke="black"/>
<path d="M45.8547 66.9402H48.8825" stroke="black"/>
<path d="M45.8547 69.9758H48.8825" stroke="black"/>
<path d="M45.8547 69.9758H48.8825" stroke="black"/>
<path d="M45.8547 72.5778H48.8825" stroke="black"/>
<path d="M45.8547 76.047H48.8825" stroke="black"/>
<path d="M45.8547 78.649H48.8825" stroke="black"/>
<path d="M45.8547 81.6846H48.8825" stroke="black"/>
<path d="M45.8547 84.7202H48.8825" stroke="black"/>
<path d="M45.8547 87.3221H48.8825" stroke="black"/>
<path d="M45.8547 90.7914H48.8825" stroke="black"/>
<path d="M72.6728 59.7849C72.6728 59.7849 70.51 60.6522 72.6728 83.2024" stroke="black" stroke-width="2"/>
<path d="M69.8612 88.1894C71.7723 88.1894 73.3216 86.6362 73.3216 84.7202C73.3216 82.8042 71.7723 81.2509 69.8612 81.2509C67.9501 81.2509 66.4008 82.8042 66.4008 84.7202C66.4008 86.6362 67.9501 88.1894 69.8612 88.1894Z" stroke="#BE6363"/>
<path d="M79.8098 89.4904C80.7654 89.4904 81.54 88.7138 81.54 87.7558C81.54 86.7978 80.7654 86.0211 79.8098 86.0211C78.8543 86.0211 78.0796 86.7978 78.0796 87.7558C78.0796 88.7138 78.8543 89.4904 79.8098 89.4904Z" stroke="#EB8D00"/>
<path d="M79.892 85.9748L71.6736 79.4699" stroke="black"/>
<defs>
<filter id="filter0_d" x="98.2" y="59.84" width="249.142" height="25.46" filterUnits="userSpaceOnUse" color-interpolation-filters="sRGB">
<feFlood flood-opacity="0" result="BackgroundImageFix"/>
<feColorMatrix in="SourceAlpha" type="matrix" values="0 0 0 0 0 0 0 0 0 0 0 0 0 0 0 0 0 0 127 0"/>
<feOffset dy="4"/>
<feGaussianBlur stdDeviation="2"/>
<feColorMatrix type="matrix" values="0 0 0 0 1 0 0 0 0 0.975 0 0 0 0 0.975 0 0 0 0.25 0"/>
<feBlend mode="normal" in2="BackgroundImageFix" result="effect1_dropShadow"/>
<feBlend mode="normal" in="SourceGraphic" in2="effect1_dropShadow" result="shape"/>
</filter>
</defs>
</svg>
